0
SECTION
2
HEADER
9
$INSUNITS
70
4
9
$ACADVER
1
AC1014
9
$HANDSEED
5
FFFF
0
ENDSEC
0
SECTION
2
TABLES
0
TABLE
2
VPORT
5
8
100
AcDbSymbolTable
0
ENDTAB
0
TABLE
2
LTYPE
5
5
100
AcDbSymbolTable
0
LTYPE
5
14
100
AcDbSymbolTableRecord
100
AcDbLinetypeTableRecord
2
BYBLOCK
70
0
0
LTYPE
5
15
100
AcDbSymbolTableRecord
100
AcDbLinetypeTableRecord
2
BYLAYER
70
0
0
ENDTAB
0
TABLE
2
LAYER
5
2
100
AcDbSymbolTable
70
2
0
LAYER
5
50
100
AcDbSymbolTableRecord
100
AcDbLayerTableRecord
2
0
70
0
6
CONTINUOUS
0
ENDTAB
0
TABLE
2
STYLE
5
3
100
AcDbSymbolTable
70
1
0
STYLE
5
11
100
AcDbSymbolTableRecord
100
AcDbTextStyleTableRecord
2
STANDARD
70
0
0
ENDTAB
0
TABLE
2
VIEW
5
6
100
AcDbSymbolTable
70
0
0
ENDTAB
0
TABLE
2
UCS
5
7
100
AcDbSymbolTable
70
0
0
ENDTAB
0
TABLE
2
APPID
5
9
100
AcDbSymbolTable
70
2
0
APPID
5
12
100
AcDbSymbolTableRecord
100
AcDbRegAppTableRecord
2
ACAD
70
0
0
ENDTAB
0
TABLE
2
DIMSTYLE
5
A
100
AcDbSymbolTable
70
1
0
ENDTAB
0
TABLE
2
BLOCK_RECORD
5
1
100
AcDbSymbolTable
70
1
0
BLOCK_RECORD
5
1F
100
AcDbSymbolTableRecord
100
AcDbBlockTableRecord
2
*MODEL_SPACE
0
BLOCK_RECORD
5
1B
100
AcDbSymbolTableRecord
100
AcDbBlockTableRecord
2
*PAPER_SPACE
0
ENDTAB
0
ENDSEC
0
SECTION
2
BLOCKS
0
BLOCK
5
20
100
AcDbEntity
100
AcDbBlockBegin
2
*MODEL_SPACE
0
ENDBLK
5
21
100
AcDbEntity
100
AcDbBlockEnd
0
BLOCK
5
1C
100
AcDbEntity
100
AcDbBlockBegin
2
*PAPER_SPACE
0
ENDBLK
5
1D
100
AcDbEntity
100
AcDbBlockEnd
0
ENDSEC
0
SECTION
2
ENTITIES
0
LWPOLYLINE
5
100
100
AcDbEntity
8
0
100
AcDbPolyline
90
4
70
1
43
0.0
10
290.38152248462228
20
100.62276356356702
42
-0.34029461867261107
10
271.47288449008431
20
100.62276356356702
10
274.3336083607029
20
103.48348743418501
42
0.31515094704623903
10
287.52079861400347
20
103.48348743418529
0
LWPOLYLINE
5
101
100
AcDbEntity
8
0
100
AcDbPolyline
90
20
70
1
43
0.0
10
40.500000000000185
20
184.99999999999201
42
-0.99999999999999989
10
19.50000000000006
20
184.99999999999201
42
0.41421356237309359
10
10.500000000000041
20
193.99999999999193
10
0
20
193.99999999996911
10
0
20
0
10
364.00000336766573
20
0
10
364.00000336766573
20
194.00000000003558
10
353.50000336763662
20
193.99999999999221
42
0.41421356237309387
10
344.50000336766561
20
184.9999999999921
42
-0.99999999999999989
10
323.50000336766561
20
184.99999999999227
42
0.41421356237309503
10
314.5000033676655
20
193.9999999999921
10
262.5000016837763
20
193.99999999999193
42
0.4142135623730962
10
253.50000168383289
20
184.9999999999919
42
-0.99999999999999989
10
232.50000168383323
20
184.9999999999919
42
0.41421356237309043
10
223.50000168383309
20
193.99999999999193
10
140.50000168380541
20
193.99999999999193
42
0.41421356237309159
10
131.50000168383301
20
184.9999999999919
42
-0.99999999999999989
10
110.5000016838332
20
184.9999999999919
42
0.41421356237309798
10
101.50000168383312
20
193.99999999999187
10
49.499999999945068
20
193.9999999999921
42
0.41421356237309681
0
LWPOLYLINE
5
102
100
AcDbEntity
8
0
100
AcDbPolyline
90
4
70
1
43
0.0
10
308.8238240993943
20
143.63055742236901
42
0.38624578987757918
10
253.03058287531201
20
143.63055742236901
10
250.199155150476
20
146.46198514720504
42
-0.38868477449129291
10
311.65525182423085
20
146.46198514720521
0
LWPOLYLINE
5
103
100
AcDbEntity
8
0
100
AcDbPolyline
90
4
70
1
43
0.0
10
293.20994960936849
20
103.45119068831302
10
290.34922573874996
20
106.31191455893202
42
0.31515094704623586
10
290.34922573875014
20
119.4991048122321
10
293.20994960936849
20
122.359828682851
42
-0.34029461867260741
0
CIRCLE
5
104
100
AcDbEntity
8
0
100
AcDbCircle
10
60.000001683832984
20
10.000000000000032
30
0
40
3.0000000000000093
210
0
220
0
230
1
0
LWPOLYLINE
5
105
100
AcDbEntity
8
0
100
AcDbPolyline
90
4
70
1
43
0.0
10
271.5051812359568
20
119.49910481223201
42
0.31515094704624264
10
271.50518123595663
20
106.3119145589318
10
268.64445736533816
20
103.45119068831302
42
-0.34029461867260663
10
268.64445736533816
20
122.359828682851
0
LWPOLYLINE
5
106
100
AcDbEntity
8
0
100
AcDbPolyline
90
4
70
1
43
0.0
10
267.21969907183609
20
123.78458697635301
42
0.3486045262036927
10
267.21969907183581
20
102.02643239481093
10
264.37611442175967
20
99.182847744734005
42
-0.36063782345866346
10
264.37611442175967
20
126.62817162642902
0
CIRCLE
5
107
100
AcDbEntity
8
0
100
AcDbCircle
10
10
20
97.500000000000057
30
0
40
2.9999999999999689
210
0
220
0
230
1
0
LWPOLYLINE
5
108
100
AcDbEntity
8
0
100
AcDbPolyline
90
4
70
1
43
0.0
10
141.15401545239402
20
33.70000000000001
10
80.15401545239402
20
33.70000000000001
10
80.15401545239402
20
68.700000000000017
10
141.15401545239402
20
68.700000000000017
0
CIRCLE
5
109
100
AcDbEntity
8
0
100
AcDbCircle
10
304.00000168383292
20
185.00000000000023
30
0
40
3.0000000000000093
210
0
220
0
230
1
0
LWPOLYLINE
5
110
100
AcDbEntity
8
0
100
AcDbPolyline
90
4
70
1
43
0.0
10
267.20454154650582
20
96.354420619988019
10
270.04812619658219
20
99.198005270065011
42
0.3486045262037028
10
291.80628077812463
20
99.198005270064868
10
294.64986542820088
20
96.354420619988019
42
-0.36063782345865947
0
LWPOLYLINE
5
111
100
AcDbEntity
8
0
100
AcDbPolyline
90
4
70
1
43
0.0
10
297.47829255294698
20
99.182847744734005
10
294.63470790287067
20
102.026432394811
42
0.34860452620369176
10
294.63470790287084
20
123.78458697635301
10
297.47829255294698
20
126.62817162642902
42
-0.36063782345866641
0
CIRCLE
5
112
100
AcDbEntity
8
0
100
AcDbCircle
10
354.00000336766573
20
97.500000000000057
30
0
40
3.0000000000000093
210
0
220
0
230
1
0
LWPOLYLINE
5
113
100
AcDbEntity
8
0
100
AcDbPolyline
90
4
70
1
43
0.0
10
311.65525182423062
20
79.349034223958029
42
-0.38868477449128458
10
250.19915515047632
20
79.349034223958355
10
253.03058287531201
20
82.180461948795042
42
0.38624578987757885
10
308.8238240993943
20
82.180461948795042
0
LWPOLYLINE
5
114
100
AcDbEntity
8
0
100
AcDbPolyline
90
4
70
1
43
0.0
10
304.57541199468466
20
86.428874053504813
10
307.40788193050707
20
83.596404117682042
42
-0.38484264872506813
10
254.44652504419997
20
83.596404117682042
10
257.27899498002205
20
86.428874053504984
42
0.3815665091554572
0
LWPOLYLINE
5
115
100
AcDbEntity
8
0
100
AcDbPolyline
90
4
70
1
43
0.0
10
307.40788193050707
20
142.21461525348201
10
304.57541199468449
20
139.38214531765902
42
0.3815665091554572
10
257.27899498002193
20
139.38214531765917
10
254.44652504419997
20
142.21461525348201
42
-0.38484264872506829
0
LWPOLYLINE
5
116
100
AcDbEntity
8
0
100
AcDbPolyline
90
4
70
1
43
0.0
10
298.90693227819969
20
133.713665601174
10
296.06971061477867
20
130.87644393775298
42
0.36513542317009179
10
265.78469635992769
20
130.87644393775329
10
262.9474746965069
20
133.713665601174
42
-0.37218826614417361
0
CIRCLE
5
117
100
AcDbEntity
8
0
100
AcDbCircle
10
321.92720348735338
20
153.90550968558202
30
0
40
2
210
0
220
0
230
1
0
CIRCLE
5
118
100
AcDbEntity
8
0
100
AcDbCircle
10
182.00000168383301
20
10.000000000000032
30
0
40
3.0000000000000093
210
0
220
0
230
1
0
LWPOLYLINE
5
119
100
AcDbEntity
8
0
100
AcDbPolyline
90
4
70
1
43
0.0
10
251.61809791945302
20
86.424831242428013
42
-0.38484264872507651
10
251.61809791945399
20
139.38618812873602
10
254.45056785527601
20
136.55371819291301
42
0.38156650915544998
10
254.45056785527584
20
89.25730117825097
0
LWPOLYLINE
5
120
100
AcDbEntity
8
0
100
AcDbPolyline
90
4
70
1
43
0.0
10
303.15307243799401
20
132.3029515114761
10
305.9872412053781
20
135.13712027886001
42
-0.37963791451650036
10
305.9872412053781
20
90.673899092303003
10
303.15307243799384
20
93.508067859688055
42
0.37500465858590276
0
CIRCLE
5
121
100
AcDbEntity
8
0
100
AcDbCircle
10
60.000001683832984
20
185.00000000000023
30
0
40
3.0000000000000093
210
0
220
0
230
1
0
LWPOLYLINE
5
122
100
AcDbEntity
8
0
100
AcDbPolyline
90
4
70
1
43
0.0
10
300.32464531324763
20
135.131378636222
42
0.37500465858591309
10
261.52976166145868
20
135.13137863622231
10
258.69559289407499
20
137.96554740360702
42
-0.37963791451649703
10
303.158814080632
20
137.96554740360702
0
LWPOLYLINE
5
123
100
AcDbEntity
8
0
100
AcDbPolyline
90
4
70
1
43
0.0
10
298.90693227819969
20
92.097353769988999
42
-0.37218826614415834
10
262.94747469650707
20
92.097353769989013
10
265.78469635992803
20
94.934575433410004
42
0.36513542317007586
10
296.0697106147785
20
94.934575433410302
0
CIRCLE
5
124
100
AcDbEntity
8
0
100
AcDbCircle
10
321.92720348735338
20
71.905509685582018
30
0
40
2
210
0
220
0
230
1
0
LWPOLYLINE
5
125
100
AcDbEntity
8
0
100
AcDbPolyline
90
4
70
1
43
0.0
10
247.37072802572999
20
143.633558022459
10
250.20215575056599
20
140.80213029762299
42
0.38624578987757541
10
250.20215575056611
20
85.008889073541098
10
247.37072802572999
20
82.177461348705009
42
-0.38868477449128769
0
LWPOLYLINE
5
126
100
AcDbEntity
8
0
100
AcDbPolyline
90
4
70
1
43
0.0
10
260.11904757176103
20
130.88523847642799
10
262.95626923518182
20
128.048016813007
42
0.36513542317007674
10
262.95626923518159
20
97.76300255815687
10
260.11904757176103
20
94.925780894736036
42
-0.37218826614416273
0
LWPOLYLINE
5
127
100
AcDbEntity
8
0
100
AcDbPolyline
90
4
70
1
43
0.0
10
307.4038391194307
20
136.55371819291301
10
310.23630905525329
20
139.38618812873599
42
-0.38484264872507418
10
310.23630905525329
20
86.424831242428013
10
307.4038391194307
20
89.257301178251041
42
0.38156650915545048
0
CIRCLE
5
128
100
AcDbEntity
8
0
100
AcDbCircle
10
239.92720348735301
20
153.90550968558202
30
0
40
2.0000000000000102
210
0
220
0
230
1
0
LWPOLYLINE
5
129
100
AcDbEntity
8
0
100
AcDbPolyline
90
4
70
1
43
0.0
10
311.65225122414051
20
140.80213029762291
10
314.48367894897683
20
143.633558022459
42
-0.38868477449128624
10
314.48367894897683
20
82.177461348705009
10
311.65225122414051
20
85.008889073541013
42
0.38624578987757491
0
LWPOLYLINE
5
130
100
AcDbEntity
8
0
100
AcDbPolyline
90
4
70
1
43
0.0
10
258.70133453671269
20
93.508067859687785
10
255.86716576932901
20
90.673899092303003
42
-0.37963791451650641
10
255.86716576932901
20
135.13712027886001
10
258.70133453671303
20
132.30295151147601
42
0.37500465858590454
0
CIRCLE
5
131
100
AcDbEntity
8
0
100
AcDbCircle
10
304.00000168383292
20
10.000000000000032
30
0
40
3.0000000000000093
210
0
220
0
230
1
0
CIRCLE
5
132
100
AcDbEntity
8
0
100
AcDbCircle
10
182.00000168383301
20
185.00000000000023
30
0
40
3.0000000000000093
210
0
220
0
230
1
0
LWPOLYLINE
5
133
100
AcDbEntity
8
0
100
AcDbPolyline
90
4
70
1
43
0.0
10
301.73535940294585
20
94.925780894736036
10
298.89813773952488
20
97.763002558157012
42
0.36513542317007752
10
298.898137739525
20
128.04801681300711
10
301.73535940294585
20
130.88523847642799
42
-0.37218826614415845
0
LWPOLYLINE
5
134
100
AcDbEntity
8
0
100
AcDbPolyline
90
4
70
1
43
0.0
10
271.47288449008431
20
125.18825580759702
42
-0.34029461867261152
10
290.38152248462228
20
125.18825580759702
10
287.5207986140037
20
122.327531936978
42
0.31515094704626762
10
274.33360836070273
20
122.3275319369784
0
CIRCLE
5
135
100
AcDbEntity
8
0
100
AcDbCircle
10
239.92720348735301
20
71.905509685582018
30
0
40
1.9999999999999898
210
0
220
0
230
1
0
LWPOLYLINE
5
136
100
AcDbEntity
8
0
100
AcDbPolyline
90
4
70
1
43
0.0
10
270.04812619658202
20
126.61301410109921
10
267.20454154650582
20
129.45659875117599
42
-0.36063782345865947
10
294.64986542820088
20
129.45659875117599
10
291.80628077812452
20
126.613014101099
42
0.34860452620370336
0
LWPOLYLINE
5
137
100
AcDbEntity
8
0
100
AcDbPolyline
90
4
70
1
43
0.0
10
261.52976166145902
20
90.679640734941046
42
0.37500465858590165
10
300.3246453132474
20
90.679640734941316
10
303.158814080632
20
87.845471967557032
42
-0.37963791451649703
10
258.69559289407499
20
87.845471967557032
0
ENDSEC
0
SECTION
2
OBJECTS
0
DICTIONARY
5
C
100
AcDbDictionary
3
ACAD_GROUP
350
D
3
ACAD_MLINESTYLE
350
17
0
DICTIONARY
5
D
100
AcDbDictionary
0
DICTIONARY
5
1A
330
C
100
AcDbDictionary
0
DICTIONARY
5
17
100
AcDbDictionary
0
ENDSEC
0
EOF
