0
SECTION
2
HEADER
9
$INSUNITS
70
4
9
$ACADVER
1
AC1014
9
$HANDSEED
5
FFFF
0
ENDSEC
0
SECTION
2
TABLES
0
TABLE
2
VPORT
5
8
100
AcDbSymbolTable
0
ENDTAB
0
TABLE
2
LTYPE
5
5
100
AcDbSymbolTable
0
LTYPE
5
14
100
AcDbSymbolTableRecord
100
AcDbLinetypeTableRecord
2
BYBLOCK
70
0
0
LTYPE
5
15
100
AcDbSymbolTableRecord
100
AcDbLinetypeTableRecord
2
BYLAYER
70
0
0
ENDTAB
0
TABLE
2
LAYER
5
2
100
AcDbSymbolTable
70
2
0
LAYER
5
50
100
AcDbSymbolTableRecord
100
AcDbLayerTableRecord
2
0
70
0
6
CONTINUOUS
0
ENDTAB
0
TABLE
2
STYLE
5
3
100
AcDbSymbolTable
70
1
0
STYLE
5
11
100
AcDbSymbolTableRecord
100
AcDbTextStyleTableRecord
2
STANDARD
70
0
0
ENDTAB
0
TABLE
2
VIEW
5
6
100
AcDbSymbolTable
70
0
0
ENDTAB
0
TABLE
2
UCS
5
7
100
AcDbSymbolTable
70
0
0
ENDTAB
0
TABLE
2
APPID
5
9
100
AcDbSymbolTable
70
2
0
APPID
5
12
100
AcDbSymbolTableRecord
100
AcDbRegAppTableRecord
2
ACAD
70
0
0
ENDTAB
0
TABLE
2
DIMSTYLE
5
A
100
AcDbSymbolTable
70
1
0
ENDTAB
0
TABLE
2
BLOCK_RECORD
5
1
100
AcDbSymbolTable
70
1
0
BLOCK_RECORD
5
1F
100
AcDbSymbolTableRecord
100
AcDbBlockTableRecord
2
*MODEL_SPACE
0
BLOCK_RECORD
5
1B
100
AcDbSymbolTableRecord
100
AcDbBlockTableRecord
2
*PAPER_SPACE
0
ENDTAB
0
ENDSEC
0
SECTION
2
BLOCKS
0
BLOCK
5
20
100
AcDbEntity
100
AcDbBlockBegin
2
*MODEL_SPACE
0
ENDBLK
5
21
100
AcDbEntity
100
AcDbBlockEnd
0
BLOCK
5
1C
100
AcDbEntity
100
AcDbBlockBegin
2
*PAPER_SPACE
0
ENDBLK
5
1D
100
AcDbEntity
100
AcDbBlockEnd
0
ENDSEC
0
SECTION
2
ENTITIES
0
LINE
5
100
100
AcDbEntity
8
0
100
AcDbLine
10
452.00000336766504
20
0
30
0
11
452.00000336766504
21
-193.99999999997385
31
0
0
LINE
5
101
100
AcDbEntity
8
0
100
AcDbLine
10
452
20
-193.99999999997362
30
0
11
452
21
0
31
0
0
CIRCLE
5
102
100
AcDbEntity
8
0
100
AcDbCircle
10
512.99999831616697
20
-10.000000000000036
30
0
40
3.0000000000000093
210
0
220
0
230
1
0
LINE
5
103
100
AcDbEntity
8
0
100
AcDbLine
10
904
20
0
30
0
11
451.99999663233496
21
0
31
0
0
CIRCLE
5
104
100
AcDbEntity
8
0
100
AcDbCircle
10
677.99999831616731
20
-10.000000000000036
30
0
40
3.0000000000000093
210
0
220
0
230
1
0
CIRCLE
5
105
100
AcDbEntity
8
0
100
AcDbCircle
10
842.99999831616697
20
-10.000000000000036
30
0
40
3.0000000000000093
210
0
220
0
230
1
0
LINE
5
106
100
AcDbEntity
8
0
100
AcDbLine
10
904
20
-193.99999999997391
30
0
11
904
21
0
31
0
0
LWPOLYLINE
5
107
100
AcDbEntity
8
0
100
AcDbPolyline
90
6
70
1
43
0.0
10
828.99999831616697
20
-41.012019577579011
10
856.99999831616708
20
-41.012019577579011
10
856.99999831616708
20
-84.858541462271035
10
853.11130851873509
20
-89.012019577579039
10
832.99108421691494
20
-89.012019577579039
10
828.99999831616697
20
-84.783788676880008
0
CIRCLE
5
108
100
AcDbEntity
8
0
100
AcDbCircle
10
862.99999831616697
20
-65.012019577579025
30
0
40
2.2500000000000098
210
0
220
0
230
1
0
CIRCLE
5
109
100
AcDbEntity
8
0
100
AcDbCircle
10
822.99999831616697
20
-65.012019577579025
30
0
40
2.2500000000000098
210
0
220
0
230
1
0
ARC
5
110
100
AcDbEntity
8
0
100
AcDbCircle
10
734.50000000001455
20
-185.00000000001489
30
0
40
8.9999999999855618
210
0
220
0
230
1
100
AcDbArc
50
-89.999999999907374
51
0
0
ARC
5
111
100
AcDbEntity
8
0
100
AcDbCircle
10
773.5
20
-185.00000000000034
30
0
40
8.9999999999999147
210
0
220
0
230
1
100
AcDbArc
50
180
51
270.00000000000074
0
CIRCLE
5
112
100
AcDbEntity
8
0
100
AcDbCircle
10
461.99999663233496
20
-97.500000000000057
30
0
40
3.0000000000000093
210
0
220
0
230
1
0
ARC
5
113
100
AcDbEntity
8
0
100
AcDbCircle
10
-601.99999663233507
20
-185.00000000000028
30
0
40
10.500000000000043
210
-0
220
0
230
-1
100
AcDbArc
50
0
51
180
0
ARC
5
114
100
AcDbEntity
8
0
100
AcDbCircle
10
854.50000000001467
20
-185.00000000001492
30
0
40
8.9999999999855262
210
0
220
0
230
1
100
AcDbArc
50
-89.999999999908098
51
0
0
CIRCLE
5
115
100
AcDbEntity
8
0
100
AcDbCircle
10
894
20
-97.500000000000057
30
0
40
3.0000000000000093
210
0
220
0
230
1
0
ARC
5
116
100
AcDbEntity
8
0
100
AcDbCircle
10
893.49999999998556
20
-185.00000000001489
30
0
40
8.9999999999855618
210
0
220
0
230
1
100
AcDbArc
50
180
51
269.99999999990661
0
ARC
5
117
100
AcDbEntity
8
0
100
AcDbCircle
10
-874
20
-185.00000000000031
30
0
40
10.499999999999972
210
-0
220
0
230
-1
100
AcDbArc
50
0
51
180
0
LINE
5
118
100
AcDbEntity
8
0
100
AcDbLine
10
621.49999663233507
20
-194.00000000000034
30
0
11
734.5000000000291
21
-194.00000000000045
31
0
0
LINE
5
119
100
AcDbEntity
8
0
100
AcDbLine
10
773.50000000000011
20
-194.00000000000034
30
0
11
854.5000000000291
21
-194.00000000000045
31
0
0
ARC
5
120
100
AcDbEntity
8
0
100
AcDbCircle
10
-754
20
-185.00000000000031
30
0
40
10.499999999999972
210
0
220
0
230
-1
100
AcDbArc
50
0
51
180
0
LINE
5
121
100
AcDbEntity
8
0
100
AcDbLine
10
893.4999999999709
20
-194.00000000000045
30
0
11
904
21
-193.99999999997391
31
0
0
LINE
5
122
100
AcDbEntity
8
0
100
AcDbLine
10
501.49999663233501
20
-194.00000000000034
30
0
11
582.49999663230858
21
-194.00000000000045
31
0
0
ARC
5
123
100
AcDbEntity
8
0
100
AcDbCircle
10
501.49999663233501
20
-185.00000000000028
30
0
40
9.0000000000000568
210
0
220
0
230
1
100
AcDbArc
50
180
51
270
0
ARC
5
124
100
AcDbEntity
8
0
100
AcDbCircle
10
-481.99999663233496
20
-185.00000000000031
30
0
40
10.499999999999972
210
0
220
0
230
-1
100
AcDbArc
50
0
51
180
0
CIRCLE
5
125
100
AcDbEntity
8
0
100
AcDbCircle
10
512.99999831616697
20
-185.00000000000031
30
0
40
3.0000000000000093
210
0
220
0
230
1
0
CIRCLE
5
126
100
AcDbEntity
8
0
100
AcDbCircle
10
842.99999831616697
20
-185.00000000000031
30
0
40
3.0000000000000093
210
0
220
0
230
1
0
CIRCLE
5
127
100
AcDbEntity
8
0
100
AcDbCircle
10
677.99999831616731
20
-185.00000000000031
30
0
40
3.0000000000000093
210
0
220
0
230
1
0
ARC
5
128
100
AcDbEntity
8
0
100
AcDbCircle
10
621.49999663233518
20
-185.00000000000026
30
0
40
9.0000000000000568
210
0
220
0
230
1
100
AcDbArc
50
180
51
269.99999999999932
0
LINE
5
129
100
AcDbEntity
8
0
100
AcDbLine
10
451.99999663233496
20
-193.99999999997385
30
0
11
462.49999663230852
21
-194.00000000000045
31
0
0
ARC
5
130
100
AcDbEntity
8
0
100
AcDbCircle
10
582.49999663232177
20
-184.99999999998721
30
0
40
9.0000000000132374
210
0
220
0
230
1
100
AcDbArc
50
269.99999999991604
51
360
0
ARC
5
131
100
AcDbEntity
8
0
100
AcDbCircle
10
462.49999663232177
20
-184.99999999998724
30
0
40
9.0000000000132019
210
0
220
0
230
1
100
AcDbArc
50
269.99999999991564
51
360
0
ENDSEC
0
SECTION
2
OBJECTS
0
DICTIONARY
5
C
100
AcDbDictionary
3
ACAD_GROUP
350
D
3
ACAD_MLINESTYLE
350
17
0
DICTIONARY
5
D
100
AcDbDictionary
0
DICTIONARY
5
1A
330
C
100
AcDbDictionary
0
DICTIONARY
5
17
100
AcDbDictionary
0
ENDSEC
0
EOF
