0
SECTION
2
HEADER
9
$INSUNITS
70
4
9
$ACADVER
1
AC1014
9
$HANDSEED
5
FFFF
0
ENDSEC
0
SECTION
2
TABLES
0
TABLE
2
VPORT
5
8
100
AcDbSymbolTable
0
ENDTAB
0
TABLE
2
LTYPE
5
5
100
AcDbSymbolTable
0
LTYPE
5
14
100
AcDbSymbolTableRecord
100
AcDbLinetypeTableRecord
2
BYBLOCK
70
0
0
LTYPE
5
15
100
AcDbSymbolTableRecord
100
AcDbLinetypeTableRecord
2
BYLAYER
70
0
0
ENDTAB
0
TABLE
2
LAYER
5
2
100
AcDbSymbolTable
70
2
0
LAYER
5
50
100
AcDbSymbolTableRecord
100
AcDbLayerTableRecord
2
0
70
0
6
CONTINUOUS
0
ENDTAB
0
TABLE
2
STYLE
5
3
100
AcDbSymbolTable
70
1
0
STYLE
5
11
100
AcDbSymbolTableRecord
100
AcDbTextStyleTableRecord
2
STANDARD
70
0
0
ENDTAB
0
TABLE
2
VIEW
5
6
100
AcDbSymbolTable
70
0
0
ENDTAB
0
TABLE
2
UCS
5
7
100
AcDbSymbolTable
70
0
0
ENDTAB
0
TABLE
2
APPID
5
9
100
AcDbSymbolTable
70
2
0
APPID
5
12
100
AcDbSymbolTableRecord
100
AcDbRegAppTableRecord
2
ACAD
70
0
0
ENDTAB
0
TABLE
2
DIMSTYLE
5
A
100
AcDbSymbolTable
70
1
0
ENDTAB
0
TABLE
2
BLOCK_RECORD
5
1
100
AcDbSymbolTable
70
1
0
BLOCK_RECORD
5
1F
100
AcDbSymbolTableRecord
100
AcDbBlockTableRecord
2
*MODEL_SPACE
0
BLOCK_RECORD
5
1B
100
AcDbSymbolTableRecord
100
AcDbBlockTableRecord
2
*PAPER_SPACE
0
ENDTAB
0
ENDSEC
0
SECTION
2
BLOCKS
0
BLOCK
5
20
100
AcDbEntity
100
AcDbBlockBegin
2
*MODEL_SPACE
0
ENDBLK
5
21
100
AcDbEntity
100
AcDbBlockEnd
0
BLOCK
5
1C
100
AcDbEntity
100
AcDbBlockBegin
2
*PAPER_SPACE
0
ENDBLK
5
1D
100
AcDbEntity
100
AcDbBlockEnd
0
ENDSEC
0
SECTION
2
ENTITIES
0
LINE
5
100
100
AcDbEntity
8
0
100
AcDbLine
10
364.00000336766573
20
0
30
0
11
364.00000336766573
21
193.99999999997348
31
0
0
ARC
5
101
100
AcDbEntity
8
0
100
AcDbCircle
10
413.5000033676659
20
185.00000000000028
30
0
40
9.0000000000000568
210
0
220
0
230
1
100
AcDbArc
50
90.000000000000369
51
180
0
ARC
5
102
100
AcDbEntity
8
0
100
AcDbCircle
10
374.50000336766743
20
185.00000000000153
30
0
40
8.9999999999985647
210
0
220
0
230
1
100
AcDbArc
50
0
51
89.999999999989143
0
LINE
5
103
100
AcDbEntity
8
0
100
AcDbLine
10
504.50000505149876
20
194.00000000000009
30
0
11
587.50000505150024
21
194.00000000000009
31
0
0
LINE
5
104
100
AcDbEntity
8
0
100
AcDbLine
10
364.00000336766573
20
193.99999999997348
30
0
11
374.50000336766914
21
194.00000000000009
31
0
0
ARC
5
105
100
AcDbEntity
8
0
100
AcDbCircle
10
465.50000505151417
20
185.00000000001529
30
0
40
8.9999999999847802
210
0
220
0
230
1
100
AcDbArc
50
0
51
89.99999999990338
0
CIRCLE
5
106
100
AcDbEntity
8
0
100
AcDbCircle
10
546.00000505149887
20
185.00000000000031
30
0
40
3.0000000000000093
210
0
220
0
230
1
0
ARC
5
107
100
AcDbEntity
8
0
100
AcDbCircle
10
-607.00000505149887
20
185.00000000000003
30
0
40
10.499999999999972
210
0
220
-0
230
-1
100
AcDbArc
50
180
51
360
0
LWPOLYLINE
5
108
100
AcDbEntity
8
0
100
AcDbPolyline
90
4
70
1
43
0.0
10
614.20215911823175
20
140.80213029762299
10
611.37073139339566
20
143.63355802245903
42
0.38868477449128808
10
611.37073139339566
20
82.177461348704867
10
614.20215911823175
20
85.008889073541013
42
-0.38624578987757474
0
LWPOLYLINE
5
109
100
AcDbEntity
8
0
100
AcDbPolyline
90
4
70
1
43
0.0
10
635.47288785775004
20
125.1882558075971
42
-0.34029461867260996
10
654.38152585228806
20
125.18825580759702
10
651.52080198166959
20
122.32753193697903
42
0.31515094704624069
10
638.33361172836874
20
122.32753193697903
0
LWPOLYLINE
5
110
100
AcDbEntity
8
0
100
AcDbPolyline
90
4
70
1
43
0.0
10
660.06971398244445
20
130.876443937754
42
0.36513542317007575
10
629.78469972759376
20
130.876443937754
10
626.94747806417297
20
133.71366560117471
42
-0.37218826614415901
10
662.90693564586547
20
133.71366560117502
0
ARC
5
111
100
AcDbEntity
8
0
100
AcDbCircle
10
587.50000505149956
20
185.00000000000071
30
0
40
8.9999999999993463
210
0
220
0
230
1
100
AcDbArc
50
0
51
89.999999999995666
0
LWPOLYLINE
5
112
100
AcDbEntity
8
0
100
AcDbPolyline
90
4
70
1
43
0.0
10
631.21970243950182
20
123.78458697635301
10
628.37611778942539
20
126.62817162642904
42
0.36063782345866546
10
628.37611778942562
20
99.182847744734218
10
631.21970243950182
20
102.026432394811
42
-0.34860452620369292
0
LWPOLYLINE
5
113
100
AcDbEntity
8
0
100
AcDbPolyline
90
4
70
1
43
0.0
10
622.70133790437887
20
132.30295151147601
10
619.86716913699479
20
135.13712027886098
42
0.37963791451651274
10
619.86716913699479
20
90.673899092303003
10
622.70133790437876
20
93.508067859688026
42
-0.37500465858590443
0
LWPOLYLINE
5
114
100
AcDbEntity
8
0
100
AcDbPolyline
90
4
70
1
43
0.0
10
631.20454491417172
20
129.45659875117582
42
-0.36063782345866147
10
658.64986879586672
20
129.45659875117599
10
655.80628414579019
20
126.613014101099
42
0.34860452620370075
10
634.04812956424803
20
126.613014101099
0
LWPOLYLINE
5
115
100
AcDbEntity
8
0
100
AcDbPolyline
90
4
70
1
43
0.0
10
614.19915851814187
20
146.46198514720504
10
617.03058624297785
20
143.63055742236901
42
-0.38624578987757902
10
672.82382746706026
20
143.63055742236909
10
675.65525519189646
20
146.46198514720513
42
0.38868477449129363
0
LWPOLYLINE
5
116
100
AcDbEntity
8
0
100
AcDbPolyline
90
4
70
1
43
0.0
10
667.15307580565968
20
93.508067859688026
42
0.37500465858590182
10
667.15307580565968
20
132.30295151147601
10
669.98724457304377
20
135.13712027886081
42
-0.37963791451650553
10
669.98724457304388
20
90.673899092303003
0
LWPOLYLINE
5
117
100
AcDbEntity
8
0
100
AcDbPolyline
90
4
70
1
43
0.0
10
626.95627260284755
20
128.048016813007
42
0.36513542317007519
10
626.95627260284755
20
97.763002558157012
10
624.11905093942653
20
94.925780894735794
42
-0.37218826614416223
10
624.11905093942676
20
130.88523847642799
0
CIRCLE
5
118
100
AcDbEntity
8
0
100
AcDbCircle
10
603.92720685501888
20
153.90550968558202
30
0
40
2.0000000000000102
210
0
220
0
230
1
0
LINE
5
119
100
AcDbEntity
8
0
100
AcDbLine
10
413.50000336766584
20
194.00000000000034
30
0
11
465.50000505152934
21
194.00000000000009
31
0
0
LWPOLYLINE
5
120
100
AcDbEntity
8
0
100
AcDbPolyline
90
4
70
1
43
0.0
10
657.20995297703428
20
122.359828682851
42
-0.34029461867260508
10
657.20995297703439
20
103.45119068831302
10
654.34922910641581
20
106.31191455893202
42
0.31515094704623803
10
654.34922910641581
20
119.49910481223201
0
LWPOLYLINE
5
121
100
AcDbEntity
8
0
100
AcDbPolyline
90
4
70
1
43
0.0
10
671.40384248709654
20
89.257301178251041
42
0.38156650915544932
10
671.40384248709654
20
136.55371819291301
10
674.23631242291879
20
139.3861881287358
42
-0.38484264872507445
10
674.23631242291901
20
86.424831242428013
0
ARC
5
122
100
AcDbEntity
8
0
100
AcDbCircle
10
-394.00000336766595
20
185.00000000000011
30
0
40
10.499999999999972
210
0
220
0
230
-1
100
AcDbArc
50
-180
51
0
0
CIRCLE
5
123
100
AcDbEntity
8
0
100
AcDbCircle
10
424.00000505149876
20
185.00000000000031
30
0
40
3.0000000000000093
210
0
220
0
230
1
0
LWPOLYLINE
5
124
100
AcDbEntity
8
0
100
AcDbPolyline
90
4
70
1
43
0.0
10
675.65225459180624
20
85.008889073541027
42
0.38624578987757591
10
675.65225459180624
20
140.80213029762299
10
678.48368231664267
20
143.63355802245908
42
-0.38868477449128597
10
678.48368231664267
20
82.177461348705009
0
ARC
5
125
100
AcDbEntity
8
0
100
AcDbCircle
10
-485.00000505149899
20
185.00000000000003
30
0
40
10.499999999999972
210
0
220
-0
230
-1
100
AcDbArc
50
180
51
360
0
ARC
5
126
100
AcDbEntity
8
0
100
AcDbCircle
10
717.50000673533134
20
185.00000000000043
30
0
40
9.0000000000000213
210
-0
220
0
230
1
100
AcDbArc
50
90
51
180
0
ARC
5
127
100
AcDbEntity
8
0
100
AcDbCircle
10
504.50000505149887
20
185.00000000000014
30
0
40
8.9999999999999503
210
0
220
0
230
1
100
AcDbArc
50
90.000000000000725
51
180
0
CIRCLE
5
128
100
AcDbEntity
8
0
100
AcDbCircle
10
668.00000505149865
20
185.00000000000031
30
0
40
3.0000000000000093
210
0
220
0
230
1
0
LWPOLYLINE
5
129
100
AcDbEntity
8
0
100
AcDbPolyline
90
4
70
1
43
0.0
10
661.47829592061294
20
126.62817162642921
10
658.63471127053663
20
123.78458697635301
42
-0.34860452620368859
10
658.63471127053663
20
102.026432394811
10
661.47829592061282
20
99.182847744734062
42
0.36063782345866652
0
ARC
5
130
100
AcDbEntity
8
0
100
AcDbCircle
10
678.50000673534601
20
185.00000000001506
30
0
40
8.9999999999852776
210
0
220
0
230
1
100
AcDbArc
50
0
51
89.999999999907359
0
LINE
5
131
100
AcDbEntity
8
0
100
AcDbLine
10
717.50000673533134
20
194.00000000000045
30
0
11
728.00000673533145
21
193.99999999997362
31
0
0
CIRCLE
5
132
100
AcDbEntity
8
0
100
AcDbCircle
10
718.00000673533145
20
97.500000000000057
30
0
40
3.0000000000000093
210
0
220
0
230
1
0
LWPOLYLINE
5
133
100
AcDbEntity
8
0
100
AcDbPolyline
90
4
70
1
43
0.0
10
629.78469972759376
20
94.934575433410004
42
0.36513542317007575
10
660.06971398244445
20
94.934575433410004
10
662.90693564586513
20
92.097353769989283
42
-0.37218826614415829
10
626.94747806417274
20
92.097353769988999
0
ARC
5
134
100
AcDbEntity
8
0
100
AcDbCircle
10
626.50000505149887
20
185.00000000000011
30
0
40
8.9999999999999858
210
0
220
0
230
1
100
AcDbArc
50
90.000000000000725
51
180
0
LWPOLYLINE
5
135
100
AcDbEntity
8
0
100
AcDbPolyline
90
4
70
1
43
0.0
10
668.57541536235033
20
139.38214531765902
10
671.40788529817291
20
142.21461525348201
42
0.38484264872506946
10
618.44652841186576
20
142.21461525348212
10
621.27899834768789
20
139.38214531765905
42
-0.38156650915545715
0
LWPOLYLINE
5
136
100
AcDbEntity
8
0
100
AcDbPolyline
90
4
70
1
43
0.0
10
635.50518460362264
20
119.49910481223201
10
632.64446073300405
20
122.35982868285103
42
0.34029461867260896
10
632.64446073300394
20
103.45119068831302
10
635.50518460362264
20
106.31191455893202
42
-0.31515094704623603
0
LWPOLYLINE
5
137
100
AcDbEntity
8
0
100
AcDbPolyline
90
4
70
1
43
0.0
10
618.4505712229419
20
136.55371819291301
10
615.61810128712
20
139.38618812873602
42
0.38484264872507629
10
615.61810128711932
20
86.424831242428453
10
618.4505712229419
20
89.257301178251041
42
-0.38156650915545165
0
LWPOLYLINE
5
138
100
AcDbEntity
8
0
100
AcDbPolyline
90
4
70
1
43
0.0
10
665.7353627706118
20
130.88523847642813
10
662.89814110719078
20
128.04801681300702
42
-0.36513542317007408
10
662.89814110719078
20
97.763002558157012
10
665.73536277061169
20
94.925780894736107
42
0.3721882661441594
0
ARC
5
139
100
AcDbEntity
8
0
100
AcDbCircle
10
-698.00000673533134
20
185.00000000000031
30
0
40
10.499999999999972
210
0
220
0
230
-1
100
AcDbArc
50
-180
51
0
0
LWPOLYLINE
5
140
100
AcDbEntity
8
0
100
AcDbPolyline
90
4
70
1
43
0.0
10
622.69559626174089
20
137.96554740360702
10
625.52976502912486
20
135.13137863622202
42
-0.37500465858591375
10
664.32464868091347
20
135.131378636222
10
667.15881744829767
20
137.96554740360696
42
0.37963791451649725
0
LINE
5
141
100
AcDbEntity
8
0
100
AcDbLine
10
728.00000673533145
20
193.99999999997362
30
0
11
728.00000673533145
21
0
31
0
0
CIRCLE
5
142
100
AcDbEntity
8
0
100
AcDbCircle
10
685.92720685501922
20
153.90550968558202
30
0
40
2
210
0
220
0
230
1
0
LWPOLYLINE
5
143
100
AcDbEntity
8
0
100
AcDbPolyline
90
4
70
1
43
0.0
10
634.04812956424803
20
99.198005270065011
42
0.34860452620370075
10
655.80628414579019
20
99.198005270065011
10
658.64986879586638
20
96.354420619988232
42
-0.36063782345865958
10
631.20454491417161
20
96.354420619988019
0
LWPOLYLINE
5
144
100
AcDbEntity
8
0
100
AcDbPolyline
90
4
70
1
43
0.0
10
638.33361172836874
20
103.48348743418501
42
0.31515094704624069
10
651.52080198166959
20
103.48348743418501
10
654.38152585228818
20
100.62276356356691
42
-0.34029461867261113
10
635.47288785775004
20
100.62276356356702
0
LWPOLYLINE
5
145
100
AcDbEntity
8
0
100
AcDbPolyline
90
4
70
1
43
0.0
10
625.52976502912475
20
90.679640734941074
10
622.69559626174089
20
87.845471967557103
42
0.37963791451649687
10
667.15881744829755
20
87.84547196755716
10
664.3246486809137
20
90.679640734941032
42
-0.37500465858590137
0
CIRCLE
5
146
100
AcDbEntity
8
0
100
AcDbCircle
10
374.00000336766573
20
97.500000000000057
30
0
40
2.9999999999999689
210
0
220
0
230
1
0
LWPOLYLINE
5
147
100
AcDbEntity
8
0
100
AcDbPolyline
90
4
70
1
43
0.0
10
617.03058624297785
20
82.180461948795056
42
0.3862457898775789
10
672.82382746706026
20
82.180461948795042
10
675.65525519189634
20
79.349034223959023
42
-0.38868477449129296
10
614.19915851814187
20
79.349034223959023
0
CIRCLE
5
148
100
AcDbEntity
8
0
100
AcDbCircle
10
424.00000505149876
20
10.000000000000032
30
0
40
3.0000000000000093
210
0
220
0
230
1
0
CIRCLE
5
149
100
AcDbEntity
8
0
100
AcDbCircle
10
668.00000505149865
20
10.000000000000032
30
0
40
3.0000000000000093
210
0
220
0
230
1
0
LWPOLYLINE
5
150
100
AcDbEntity
8
0
100
AcDbPolyline
90
4
70
1
43
0.0
10
671.40788529817269
20
83.596404117682113
42
-0.38484264872506835
10
618.44652841186587
20
83.596404117682042
10
621.27899834768789
20
86.428874053504956
42
0.3815665091554567
10
668.57541536235033
20
86.428874053504984
0
CIRCLE
5
151
100
AcDbEntity
8
0
100
AcDbCircle
10
603.92720685501888
20
71.905509685582018
30
0
40
1.9999999999999898
210
0
220
0
230
1
0
CIRCLE
5
152
100
AcDbEntity
8
0
100
AcDbCircle
10
546.00000505149887
20
10.000000000000032
30
0
40
3.0000000000000093
210
0
220
0
230
1
0
CIRCLE
5
153
100
AcDbEntity
8
0
100
AcDbCircle
10
685.92720685501922
20
71.905509685582018
30
0
40
2
210
0
220
0
230
1
0
LINE
5
154
100
AcDbEntity
8
0
100
AcDbLine
10
728.00000673533145
20
0
30
0
11
364.00000336766573
21
0
31
0
0
LINE
5
155
100
AcDbEntity
8
0
100
AcDbLine
10
626.50000505149876
20
194.00000000000009
30
0
11
678.50000673536056
21
194.00000000000034
31
0
0
ENDSEC
0
SECTION
2
OBJECTS
0
DICTIONARY
5
C
100
AcDbDictionary
3
ACAD_GROUP
350
D
3
ACAD_MLINESTYLE
350
17
0
DICTIONARY
5
D
100
AcDbDictionary
0
DICTIONARY
5
1A
330
C
100
AcDbDictionary
0
DICTIONARY
5
17
100
AcDbDictionary
0
ENDSEC
0
EOF
