0
SECTION
2
HEADER
9
$INSUNITS
70
4
9
$ACADVER
1
AC1014
9
$HANDSEED
5
FFFF
0
ENDSEC
0
SECTION
2
TABLES
0
TABLE
2
VPORT
5
8
100
AcDbSymbolTable
0
ENDTAB
0
TABLE
2
LTYPE
5
5
100
AcDbSymbolTable
0
LTYPE
5
14
100
AcDbSymbolTableRecord
100
AcDbLinetypeTableRecord
2
BYBLOCK
70
0
0
LTYPE
5
15
100
AcDbSymbolTableRecord
100
AcDbLinetypeTableRecord
2
BYLAYER
70
0
0
ENDTAB
0
TABLE
2
LAYER
5
2
100
AcDbSymbolTable
70
2
0
LAYER
5
50
100
AcDbSymbolTableRecord
100
AcDbLayerTableRecord
2
0
70
0
6
CONTINUOUS
0
ENDTAB
0
TABLE
2
STYLE
5
3
100
AcDbSymbolTable
70
1
0
STYLE
5
11
100
AcDbSymbolTableRecord
100
AcDbTextStyleTableRecord
2
STANDARD
70
0
0
ENDTAB
0
TABLE
2
VIEW
5
6
100
AcDbSymbolTable
70
0
0
ENDTAB
0
TABLE
2
UCS
5
7
100
AcDbSymbolTable
70
0
0
ENDTAB
0
TABLE
2
APPID
5
9
100
AcDbSymbolTable
70
2
0
APPID
5
12
100
AcDbSymbolTableRecord
100
AcDbRegAppTableRecord
2
ACAD
70
0
0
ENDTAB
0
TABLE
2
DIMSTYLE
5
A
100
AcDbSymbolTable
70
1
0
ENDTAB
0
TABLE
2
BLOCK_RECORD
5
1
100
AcDbSymbolTable
70
1
0
BLOCK_RECORD
5
1F
100
AcDbSymbolTableRecord
100
AcDbBlockTableRecord
2
*MODEL_SPACE
0
BLOCK_RECORD
5
1B
100
AcDbSymbolTableRecord
100
AcDbBlockTableRecord
2
*PAPER_SPACE
0
ENDTAB
0
ENDSEC
0
SECTION
2
BLOCKS
0
BLOCK
5
20
100
AcDbEntity
100
AcDbBlockBegin
2
*MODEL_SPACE
0
ENDBLK
5
21
100
AcDbEntity
100
AcDbBlockEnd
0
BLOCK
5
1C
100
AcDbEntity
100
AcDbBlockBegin
2
*PAPER_SPACE
0
ENDBLK
5
1D
100
AcDbEntity
100
AcDbBlockEnd
0
ENDSEC
0
SECTION
2
ENTITIES
0
CIRCLE
5
100
100
AcDbEntity
8
0
100
AcDbCircle
10
57.000001028173045
20
-80.000011056668797
30
0
40
3.0000000000000071
210
-0
220
8.7581154020304303e-46
230
1
0
CIRCLE
5
101
100
AcDbEntity
8
0
100
AcDbCircle
10
6.9999993443402975
20
-167.50001105666877
30
0
40
3.0000000000000071
210
-0
220
8.7581154020304303e-46
230
1
0
CIRCLE
5
102
100
AcDbEntity
8
0
100
AcDbCircle
10
351.00000271200577
20
-167.50001105666877
30
0
40
2.9999999999999716
210
-0
220
8.7581154020304303e-46
230
1
0
CIRCLE
5
103
100
AcDbEntity
8
0
100
AcDbCircle
10
301.00000102817307
20
-80.000011056668797
30
0
40
3.0000000000000071
210
-0
220
8.7581154020304303e-46
230
1
0
CIRCLE
5
104
100
AcDbEntity
8
0
100
AcDbCircle
10
179.00000102817307
20
-255.0000110566688
30
-3.5527136788005009e-14
40
3.0000000000000071
210
-0
220
8.7581154020304303e-46
230
1
0
CIRCLE
5
105
100
AcDbEntity
8
0
100
AcDbCircle
10
179.00000102817307
20
-80.000011056668797
30
0
40
3.0000000000000071
210
-0
220
8.7581154020304303e-46
230
1
0
CIRCLE
5
106
100
AcDbEntity
8
0
100
AcDbCircle
10
301.00000102817307
20
-255.0000110566688
30
0
40
3.0000000000000071
210
-0
220
8.7581154020304303e-46
230
1
0
CIRCLE
5
107
100
AcDbEntity
8
0
100
AcDbCircle
10
57.000001028173045
20
-255.0000110566688
30
-3.5527136788005009e-14
40
3.0000000000000071
210
-0
220
8.7581154020304303e-46
230
1
0
CIRCLE
5
108
100
AcDbEntity
8
0
100
AcDbCircle
10
121.07279922465261
20
-193.09450137108712
30
0
40
1.9999999999999929
210
-0
220
8.7581154020304303e-46
230
1
0
CIRCLE
5
109
100
AcDbEntity
8
0
100
AcDbCircle
10
121.07279922465261
20
-111.09450137108712
30
0
40
2.0000000000000107
210
-0
220
8.7581154020304303e-46
230
1
0
CIRCLE
5
110
100
AcDbEntity
8
0
100
AcDbCircle
10
39.072799224652606
20
-193.09450137108712
30
-3.5527136788005009e-14
40
2.0000000000000018
210
-0
220
8.7581154020304303e-46
230
1
0
LWPOLYLINE
5
111
100
AcDbEntity
8
0
100
AcDbPolyline
90
4
70
1
43
0.0
10
89.527118221921626
20
-164.37724749310232
10
86.666394351302998
20
-161.5165236224837
42
-0.31515094704625174
10
73.479204098002228
20
-161.5165236224837
10
70.618480227383643
20
-164.37724749310235
42
0.3402946186726053
0
LWPOLYLINE
5
112
100
AcDbEntity
8
0
100
AcDbPolyline
90
4
70
1
43
0.0
10
93.795461165500157
20
-168.64559043668083
10
90.951876515423763
20
-165.80200578660441
42
-0.34860452620369536
10
69.193721933881463
20
-165.80200578660447
10
66.350137283805083
20
-168.64559043668081
42
0.36063782345866491
0
LWPOLYLINE
5
113
100
AcDbEntity
8
0
100
AcDbPolyline
90
4
70
1
43
0.0
10
107.96941983669359
20
-121.36945363429994
10
110.80084756152986
20
-118.5380259094637
42
0.38868477449128941
10
49.344750887775376
20
-118.5380259094637
10
52.176178612611608
20
-121.36945363429994
42
-0.38624578987757602
0
CIRCLE
5
114
100
AcDbEntity
8
0
100
AcDbCircle
10
39.072799224652606
20
-111.09450137108712
30
-3.5527136788005009e-14
40
2.0000000000000018
210
-0
220
8.7581154020304303e-46
230
1
0
LWPOLYLINE
5
115
100
AcDbEntity
8
0
100
AcDbPolyline
90
4
70
1
43
0.0
10
92.355545346667782
20
-142.64018237381811
10
89.494821476049182
20
-145.50090624443672
42
-0.31515094704625185
10
89.494821476049182
20
-158.68809649773749
10
92.35554534666781
20
-161.54882036835608
42
0.3402946186726058
0
LWPOLYLINE
5
116
100
AcDbEntity
8
0
100
AcDbPolyline
90
4
70
1
43
0.0
10
96.623888290246327
20
-138.37183943023962
10
93.78030364016999
20
-141.21542408031593
42
-0.34860452620369481
10
93.780303640169961
20
-162.97357866185826
10
96.623888290246356
20
-165.81716331193459
42
0.36063782345866352
0
LWPOLYLINE
5
117
100
AcDbEntity
8
0
100
AcDbPolyline
90
4
70
1
43
0.0
10
63.521710159058919
20
-165.81716331193462
10
66.365294809135307
20
-162.97357866185823
42
-0.3486045262036957
10
66.365294809135293
20
-141.21542408031598
10
63.521710159058884
20
-138.37183943023962
42
0.36063782345866457
0
LWPOLYLINE
5
118
100
AcDbEntity
8
0
100
AcDbPolyline
90
4
70
1
43
0.0
10
67.790053102637444
20
-161.54882036835608
10
70.650776973256058
20
-158.68809649773749
42
-0.31515094704625257
10
70.650776973256043
20
-145.50090624443672
10
67.790053102637444
20
-142.64018237381813
42
0.34029461867260641
0
LWPOLYLINE
5
119
100
AcDbEntity
8
0
100
AcDbPolyline
90
4
70
1
43
0.0
10
70.618480227383614
20
-139.81175524907195
10
73.479204098002214
20
-142.67247911969054
42
-0.31515094704625274
10
86.666394351303012
20
-142.67247911969054
10
89.527118221921583
20
-139.81175524907195
42
0.34029461867260635
0
LWPOLYLINE
5
120
100
AcDbEntity
8
0
100
AcDbPolyline
90
4
70
1
43
0.0
10
66.350137283805111
20
-135.54341230549343
10
69.193721933881449
20
-138.38699695556977
42
-0.34860452620369548
10
90.951876515423763
20
-138.38699695556977
10
93.795461165500143
20
-135.54341230549343
42
0.3606378234586653
0
LWPOLYLINE
5
121
100
AcDbEntity
8
0
100
AcDbPolyline
90
4
70
1
43
0.0
10
100.88095514024518
20
-134.11477258024075
10
98.043733476824173
20
-136.95199424366174
42
-0.36513542317008296
10
98.043733476824158
20
-167.23700849851247
10
100.88095514024519
20
-170.07423016193349
42
0.3721882661441645
0
LWPOLYLINE
5
122
100
AcDbEntity
8
0
100
AcDbPolyline
90
4
70
1
43
0.0
10
98.052528015498993
20
-172.9026572866797
10
95.21530635207796
20
-170.06543562325862
42
-0.36513542317008296
10
64.930292097227266
20
-170.06543562325868
10
62.093070433806247
20
-172.90265728667973
42
0.37218826614416439
0
LWPOLYLINE
5
123
100
AcDbEntity
8
0
100
AcDbPolyline
90
4
70
1
43
0.0
10
62.093070433806226
20
-131.28634545549454
10
64.930292097227252
20
-134.12356711891556
42
-0.36513542317008352
10
95.215306352077974
20
-134.12356711891559
10
98.052528015498979
20
-131.28634545549454
42
0.37218826614416489
0
LWPOLYLINE
5
124
100
AcDbEntity
8
0
100
AcDbPolyline
90
4
70
1
43
0.0
10
59.264643309060048
20
-170.07423016193349
10
62.101864972481096
20
-167.23700849851247
42
-0.36513542317008352
10
62.101864972481089
20
-136.95199424366177
10
59.264643309060041
20
-134.11477258024075
42
0.37218826614416495
0
LWPOLYLINE
5
125
100
AcDbEntity
8
0
100
AcDbPolyline
90
4
70
1
43
0.0
10
105.13283694267739
20
-129.86289077780856
10
102.29866817529314
20
-132.69705954519279
42
-0.3750046585859067
10
102.29866817529313
20
-171.49194319698142
10
105.13283694267741
20
-174.32611196436568
42
0.37963791451650081
0
LWPOLYLINE
5
126
100
AcDbEntity
8
0
100
AcDbPolyline
90
4
70
1
43
0.0
10
102.30440981793122
20
-177.15453908911189
10
99.470241050546946
20
-174.32037032172761
42
-0.37500465858590698
10
60.675357398758287
20
-174.32037032172764
10
57.841188631374038
20
-177.15453908911189
42
0.37963791451650108
0
LWPOLYLINE
5
127
100
AcDbEntity
8
0
100
AcDbPolyline
90
4
70
1
43
0.0
10
57.841188631374038
20
-127.03446365306235
10
60.67535739875828
20
-129.8686324204466
42
-0.37500465858590748
10
99.470241050546946
20
-129.8686324204466
10
102.3044098179312
20
-127.03446365306235
42
0.37963791451650131
0
LWPOLYLINE
5
128
100
AcDbEntity
8
0
100
AcDbPolyline
90
4
70
1
43
0.0
10
55.012761506627854
20
-174.32611196436568
10
57.846930274012138
20
-171.49194319698142
42
-0.37500465858590726
10
57.846930274012117
20
-132.69705954519281
10
55.012761506627839
20
-129.86289077780856
42
0.37963791451650114
0
LWPOLYLINE
5
129
100
AcDbEntity
8
0
100
AcDbPolyline
90
4
70
1
43
0.0
10
109.38190479255243
20
-125.61382292793347
10
106.54943485673002
20
-128.4462928637559
42
-0.38156650915545209
10
106.54943485673002
20
-175.74270987841831
10
109.38190479255249
20
-178.57517981424076
42
0.38484264872507123
0
LWPOLYLINE
5
130
100
AcDbEntity
8
0
100
AcDbPolyline
90
4
70
1
43
0.0
10
53.592120781498963
20
-122.78539580318728
10
56.424590717321408
20
-125.61786573900974
42
-0.38156650915545259
10
103.72100773198382
20
-125.61786573900974
10
106.55347766780625
20
-122.78539580318727
42
0.38484264872507168
0
LWPOLYLINE
5
131
100
AcDbEntity
8
0
100
AcDbPolyline
90
4
70
1
43
0.0
10
106.55347766780629
20
-181.40360693898697
10
103.7210077319838
20
-178.57113700316449
42
-0.3815665091554522
10
56.424590717321422
20
-178.57113700316449
10
53.592120781498949
20
-181.40360693898697
42
0.38484264872507168
0
LWPOLYLINE
5
132
100
AcDbEntity
8
0
100
AcDbPolyline
90
4
70
1
43
0.0
10
50.763693656752778
20
-178.57517981424076
10
53.59616359257528
20
-175.74270987841828
42
-0.38156650915545254
10
53.596163592575259
20
-128.44629286375596
10
50.763693656752793
20
-125.61382292793343
42
0.3848426487250719
0
LWPOLYLINE
5
133
100
AcDbEntity
8
0
100
AcDbPolyline
90
4
70
1
43
0.0
10
113.62927468627605
20
-121.36645303420988
10
110.79784696143977
20
-124.19788075904613
42
-0.38624578987757568
10
110.79784696143977
20
-179.9911219831281
10
113.62927468627606
20
-182.82254970796433
42
0.38868477449128885
0
LWPOLYLINE
5
134
100
AcDbEntity
8
0
100
AcDbPolyline
90
4
70
1
43
0.0
10
52.176178612611622
20
-182.81954910787431
10
49.344750887775376
20
-185.65097683271057
42
0.38868477449128913
10
110.80084756152986
20
-185.65097683271057
10
107.96941983669359
20
-182.81954910787431
42
-0.38624578987757563
0
LWPOLYLINE
5
135
100
AcDbEntity
8
0
100
AcDbPolyline
90
4
70
1
43
0.0
10
46.51632376302917
20
-182.82254970796436
10
49.347751487865459
20
-179.9911219831281
42
-0.38624578987757602
10
49.347751487865452
20
-124.19788075904613
10
46.516323763029192
20
-121.36645303420985
42
0.38868477449128941
0
LWPOLYLINE
5
136
100
AcDbEntity
8
0
100
AcDbPolyline
90
4
70
1
43
0.0
10
-3.0000006556597092
20
-265.00001105666877
10
-3.0000006556596759
20
-70.000011056668711
10
361.00000271200577
20
-70.000011056668853
10
361.00000271200588
20
-265.00001105666865
0
ENDSEC
0
SECTION
2
OBJECTS
0
DICTIONARY
5
C
100
AcDbDictionary
3
ACAD_GROUP
350
D
3
ACAD_MLINESTYLE
350
17
0
DICTIONARY
5
D
100
AcDbDictionary
0
DICTIONARY
5
1A
330
C
100
AcDbDictionary
0
DICTIONARY
5
17
100
AcDbDictionary
0
ENDSEC
0
EOF
