0
SECTION
2
HEADER
9
$INSUNITS
70
4
9
$ACADVER
1
AC1014
9
$HANDSEED
5
FFFF
0
ENDSEC
0
SECTION
2
TABLES
0
TABLE
2
VPORT
5
8
100
AcDbSymbolTable
0
ENDTAB
0
TABLE
2
LTYPE
5
5
100
AcDbSymbolTable
0
LTYPE
5
14
100
AcDbSymbolTableRecord
100
AcDbLinetypeTableRecord
2
BYBLOCK
70
0
0
LTYPE
5
15
100
AcDbSymbolTableRecord
100
AcDbLinetypeTableRecord
2
BYLAYER
70
0
0
ENDTAB
0
TABLE
2
LAYER
5
2
100
AcDbSymbolTable
70
2
0
LAYER
5
50
100
AcDbSymbolTableRecord
100
AcDbLayerTableRecord
2
0
70
0
6
CONTINUOUS
0
ENDTAB
0
TABLE
2
STYLE
5
3
100
AcDbSymbolTable
70
1
0
STYLE
5
11
100
AcDbSymbolTableRecord
100
AcDbTextStyleTableRecord
2
STANDARD
70
0
0
ENDTAB
0
TABLE
2
VIEW
5
6
100
AcDbSymbolTable
70
0
0
ENDTAB
0
TABLE
2
UCS
5
7
100
AcDbSymbolTable
70
0
0
ENDTAB
0
TABLE
2
APPID
5
9
100
AcDbSymbolTable
70
2
0
APPID
5
12
100
AcDbSymbolTableRecord
100
AcDbRegAppTableRecord
2
ACAD
70
0
0
ENDTAB
0
TABLE
2
DIMSTYLE
5
A
100
AcDbSymbolTable
70
1
0
ENDTAB
0
TABLE
2
BLOCK_RECORD
5
1
100
AcDbSymbolTable
70
1
0
BLOCK_RECORD
5
1F
100
AcDbSymbolTableRecord
100
AcDbBlockTableRecord
2
*MODEL_SPACE
0
BLOCK_RECORD
5
1B
100
AcDbSymbolTableRecord
100
AcDbBlockTableRecord
2
*PAPER_SPACE
0
ENDTAB
0
ENDSEC
0
SECTION
2
BLOCKS
0
BLOCK
5
20
100
AcDbEntity
100
AcDbBlockBegin
2
*MODEL_SPACE
0
ENDBLK
5
21
100
AcDbEntity
100
AcDbBlockEnd
0
BLOCK
5
1C
100
AcDbEntity
100
AcDbBlockBegin
2
*PAPER_SPACE
0
ENDBLK
5
1D
100
AcDbEntity
100
AcDbBlockEnd
0
ENDSEC
0
SECTION
2
ENTITIES
0
CIRCLE
5
100
100
AcDbEntity
8
0
100
AcDbCircle
10
-215.90000000000003
20
-40.566666666666634
30
0
40
4.3500000000000227
210
0
220
-0
230
1
0
CIRCLE
5
101
100
AcDbEntity
8
0
100
AcDbCircle
10
215.90000000000003
20
-40.566666666666634
30
0
40
4.3500000000000227
210
0
220
-0
230
1
0
CIRCLE
5
102
100
AcDbEntity
8
0
100
AcDbCircle
10
215.90000000000003
20
40.56666666666672
30
0
40
4.3500000000000227
210
0
220
-0
230
1
0
CIRCLE
5
103
100
AcDbEntity
8
0
100
AcDbCircle
10
-215.90000000000003
20
40.56666666666672
30
0
40
4.3500000000000227
210
0
220
-0
230
1
0
CIRCLE
5
104
100
AcDbEntity
8
0
100
AcDbCircle
10
-215.90000000000003
20
-121.69999999999999
30
0
40
4.3500000000000227
210
0
220
-0
230
1
0
CIRCLE
5
105
100
AcDbEntity
8
0
100
AcDbCircle
10
215.90000000000003
20
-121.69999999999999
30
0
40
4.3500000000000227
210
0
220
-0
230
1
0
CIRCLE
5
106
100
AcDbEntity
8
0
100
AcDbCircle
10
215.90000000000003
20
121.70000000000005
30
0
40
4.3500000000000227
210
0
220
-0
230
1
0
CIRCLE
5
107
100
AcDbEntity
8
0
100
AcDbCircle
10
-215.90000000000003
20
121.70000000000005
30
0
40
4.3500000000000227
210
0
220
-0
230
1
0
CIRCLE
5
108
100
AcDbEntity
8
0
100
AcDbCircle
10
-104.6074916205062
20
-73.653055038789205
30
0
40
1.5000000000000036
210
0
220
-0
230
1
0
CIRCLE
5
109
100
AcDbEntity
8
0
100
AcDbCircle
10
158.59999645501378
20
113.399997958673
30
0
40
1.5000000000000036
210
0
220
-0
230
1
0
CIRCLE
5
110
100
AcDbEntity
8
0
100
AcDbCircle
10
-158.59999645501375
20
-56.999998232590158
30
0
40
1.4999999999999858
210
0
220
-0
230
1
0
CIRCLE
5
111
100
AcDbEntity
8
0
100
AcDbCircle
10
104.60749162050617
20
-73.653055038789248
30
0
40
1.5000000000000036
210
0
220
-0
230
1
0
CIRCLE
5
112
100
AcDbEntity
8
0
100
AcDbCircle
10
158.59999645501375
20
-56.999998232590208
30
0
40
1.5000000000000036
210
0
220
-0
230
1
0
CIRCLE
5
113
100
AcDbEntity
8
0
100
AcDbCircle
10
-158.59999645501372
20
113.39999795867303
30
0
40
1.5000000000000036
210
0
220
-0
230
1
0
LWPOLYLINE
5
114
100
AcDbEntity
8
0
100
AcDbPolyline
90
28
70
1
43
0.0
10
-30.499625983112033
20
-151.70000000000002
10
-30.499625983112033
20
-130.12600201256907
10
-28.999625983112026
20
-128.62600201256907
10
-17.499625983112029
20
-128.62600201256907
10
-17.499625983112029
20
-119.62600201256906
10
-15.999625983112029
20
-118.12600201256906
10
15.999625983112029
20
-118.12600201256906
10
17.499625983112029
20
-119.62600201256906
10
17.499625983112029
20
-128.62600201256907
10
28.999625983112036
20
-128.62600201256907
10
30.499625983112033
20
-130.12600201256907
10
30.499625983112033
20
-151.70000000000002
10
75
20
-151.70000000000002
10
75
20
-171.90000000000001
10
205.70000000000005
20
-171.90000000000001
10
205.70000000000005
20
-151.69999999999999
10
225.90000000000003
20
-151.69999999999999
10
225.90000000000003
20
171.90000000000001
10
205.70000000000005
20
171.90000000000001
10
205.70000000000005
20
160.40000000000003
10
-205.7000000000001
20
160.40000000000003
10
-205.70000000000007
20
171.90000000000001
10
-225.90000000000003
20
171.90000000000001
10
-225.90000000000003
20
-151.69999999999999
10
-205.70000000000007
20
-151.69999999999999
10
-205.70000000000007
20
-171.90000000000001
10
-75
20
-171.90000000000001
10
-75
20
-151.70000000000002
0
LWPOLYLINE
5
115
100
AcDbEntity
8
0
100
AcDbPolyline
90
8
70
1
43
0.0
10
152.50000000000003
20
-55.749998999999981
10
149
20
-55.749998999999981
10
149
20
-66.499999493360519
10
-148.99999999999997
20
-66.499999493360519
10
-148.99999999999997
20
-55.749998999999981
10
-152.49999999999997
20
-55.749998999999981
10
-152.49999999999997
20
123.75000100000001
10
152.50000000000003
20
123.75000100000001
0
CIRCLE
5
116
100
AcDbEntity
8
0
100
AcDbCircle
10
59.150000000000048
20
-115.15000000000002
30
0
40
6.1000000000000032
210
0
220
-0
230
1
0
CIRCLE
5
117
100
AcDbEntity
8
0
100
AcDbCircle
10
-49.79175713125619
20
-99.494943178150891
30
0
40
1.4999999999999947
210
0
220
-0
230
1
0
CIRCLE
5
118
100
AcDbEntity
8
0
100
AcDbCircle
10
175.64032998942474
20
110.10464060732873
30
0
40
1.4999999999999858
210
0
220
-0
230
1
0
CIRCLE
5
119
100
AcDbEntity
8
0
100
AcDbCircle
10
50.208244358859858
20
-99.494943178150891
30
0
40
1.4999999999999947
210
0
220
-0
230
1
0
CIRCLE
5
120
100
AcDbEntity
8
0
100
AcDbCircle
10
-175.64032998942474
20
98.104640607328719
30
0
40
1.4999999999999858
210
0
220
-0
230
1
0
CIRCLE
5
121
100
AcDbEntity
8
0
100
AcDbCircle
10
-19.791757131256208
20
-99.494943178150891
30
0
40
1.4999999999999991
210
0
220
-0
230
1
0
CIRCLE
5
122
100
AcDbEntity
8
0
100
AcDbCircle
10
175.64032998942474
20
98.104640607328719
30
0
40
1.4999999999999858
210
0
220
-0
230
1
0
CIRCLE
5
123
100
AcDbEntity
8
0
100
AcDbCircle
10
20.208244358859883
20
-99.494943178150891
30
0
40
1.4999999999999991
210
0
220
-0
230
1
0
CIRCLE
5
124
100
AcDbEntity
8
0
100
AcDbCircle
10
-175.64032998942474
20
110.10464060732873
30
0
40
1.4999999999999858
210
0
220
-0
230
1
0
ENDSEC
0
SECTION
2
OBJECTS
0
DICTIONARY
5
C
100
AcDbDictionary
3
ACAD_GROUP
350
D
3
ACAD_MLINESTYLE
350
17
0
DICTIONARY
5
D
100
AcDbDictionary
0
DICTIONARY
5
1A
330
C
100
AcDbDictionary
0
DICTIONARY
5
17
100
AcDbDictionary
0
ENDSEC
0
EOF
