0
SECTION
2
HEADER
9
$INSUNITS
70
4
9
$ACADVER
1
AC1014
9
$HANDSEED
5
FFFF
0
ENDSEC
0
SECTION
2
TABLES
0
TABLE
2
VPORT
5
8
100
AcDbSymbolTable
0
ENDTAB
0
TABLE
2
LTYPE
5
5
100
AcDbSymbolTable
0
LTYPE
5
14
100
AcDbSymbolTableRecord
100
AcDbLinetypeTableRecord
2
BYBLOCK
70
0
0
LTYPE
5
15
100
AcDbSymbolTableRecord
100
AcDbLinetypeTableRecord
2
BYLAYER
70
0
0
ENDTAB
0
TABLE
2
LAYER
5
2
100
AcDbSymbolTable
70
2
0
LAYER
5
50
100
AcDbSymbolTableRecord
100
AcDbLayerTableRecord
2
0
70
0
6
CONTINUOUS
0
ENDTAB
0
TABLE
2
STYLE
5
3
100
AcDbSymbolTable
70
1
0
STYLE
5
11
100
AcDbSymbolTableRecord
100
AcDbTextStyleTableRecord
2
STANDARD
70
0
0
ENDTAB
0
TABLE
2
VIEW
5
6
100
AcDbSymbolTable
70
0
0
ENDTAB
0
TABLE
2
UCS
5
7
100
AcDbSymbolTable
70
0
0
ENDTAB
0
TABLE
2
APPID
5
9
100
AcDbSymbolTable
70
2
0
APPID
5
12
100
AcDbSymbolTableRecord
100
AcDbRegAppTableRecord
2
ACAD
70
0
0
ENDTAB
0
TABLE
2
DIMSTYLE
5
A
100
AcDbSymbolTable
70
1
0
ENDTAB
0
TABLE
2
BLOCK_RECORD
5
1
100
AcDbSymbolTable
70
1
0
BLOCK_RECORD
5
1F
100
AcDbSymbolTableRecord
100
AcDbBlockTableRecord
2
*MODEL_SPACE
0
BLOCK_RECORD
5
1B
100
AcDbSymbolTableRecord
100
AcDbBlockTableRecord
2
*PAPER_SPACE
0
ENDTAB
0
ENDSEC
0
SECTION
2
BLOCKS
0
BLOCK
5
20
100
AcDbEntity
100
AcDbBlockBegin
2
*MODEL_SPACE
0
ENDBLK
5
21
100
AcDbEntity
100
AcDbBlockEnd
0
BLOCK
5
1C
100
AcDbEntity
100
AcDbBlockBegin
2
*PAPER_SPACE
0
ENDBLK
5
1D
100
AcDbEntity
100
AcDbBlockEnd
0
ENDSEC
0
SECTION
2
ENTITIES
0
CIRCLE
5
100
100
AcDbEntity
8
0
100
AcDbCircle
10
-57.000001028173145
20
-80.000011056660696
30
0
40
3.0000000000000071
210
0
220
-8.7581154020304303e-46
230
1
0
CIRCLE
5
101
100
AcDbEntity
8
0
100
AcDbCircle
10
-6.9999993443403996
20
-167.50001105666064
30
0
40
3.0000000000000071
210
0
220
-8.7581154020304303e-46
230
1
0
CIRCLE
5
102
100
AcDbEntity
8
0
100
AcDbCircle
10
-351.00000271200594
20
-167.50001105666064
30
0
40
2.9999999999999716
210
0
220
-8.7581154020304303e-46
230
1
0
LWPOLYLINE
5
103
100
AcDbEntity
8
0
100
AcDbPolyline
90
4
70
1
43
0.0
10
-219.84598725961229
20
-196.30001105666059
10
-280.84598725961229
20
-196.30001105666059
10
-280.84598725961229
20
-231.30001105666059
10
-219.84598725961229
20
-231.30001105666059
0
CIRCLE
5
104
100
AcDbEntity
8
0
100
AcDbCircle
10
-301.00000102817313
20
-80.000011056660696
30
0
40
3.0000000000000071
210
0
220
-8.7581154020304303e-46
230
1
0
CIRCLE
5
105
100
AcDbEntity
8
0
100
AcDbCircle
10
-179.00000102817316
20
-255.0000110566607
30
3.5527136788005009e-14
40
3.0000000000000071
210
0
220
-8.7581154020304303e-46
230
1
0
CIRCLE
5
106
100
AcDbEntity
8
0
100
AcDbCircle
10
-179.00000102817316
20
-80.000011056660696
30
0
40
3.0000000000000071
210
0
220
-8.7581154020304303e-46
230
1
0
CIRCLE
5
107
100
AcDbEntity
8
0
100
AcDbCircle
10
-301.00000102817313
20
-255.0000110566607
30
0
40
3.0000000000000071
210
0
220
-8.7581154020304303e-46
230
1
0
CIRCLE
5
108
100
AcDbEntity
8
0
100
AcDbCircle
10
-57.000001028173145
20
-255.0000110566607
30
3.5527136788005009e-14
40
3.0000000000000071
210
0
220
-8.7581154020304303e-46
230
1
0
CIRCLE
5
109
100
AcDbEntity
8
0
100
AcDbCircle
10
-121.07279922465273
20
-193.09450137107902
30
0
40
1.9999999999999929
210
0
220
-8.7581154020304303e-46
230
1
0
CIRCLE
5
110
100
AcDbEntity
8
0
100
AcDbCircle
10
-121.07279922465273
20
-111.09450137107902
30
0
40
2.0000000000000107
210
0
220
-8.7581154020304303e-46
230
1
0
CIRCLE
5
111
100
AcDbEntity
8
0
100
AcDbCircle
10
-39.072799224652705
20
-193.09450137107902
30
3.5527136788005009e-14
40
2.0000000000000018
210
0
220
-8.7581154020304303e-46
230
1
0
LWPOLYLINE
5
112
100
AcDbEntity
8
0
100
AcDbPolyline
90
4
70
1
43
0.0
10
-86.666394351303126
20
-161.5165236224756
10
-89.527118221921725
20
-164.37724749309422
42
0.34029461867260635
10
-70.618480227383728
20
-164.37724749309422
10
-73.479204098002342
20
-161.5165236224756
42
-0.31515094704625185
0
LWPOLYLINE
5
113
100
AcDbEntity
8
0
100
AcDbPolyline
90
4
70
1
43
0.0
10
-90.951876515423891
20
-165.80200578659634
10
-93.795461165500257
20
-168.64559043667273
42
0.36063782345866507
10
-66.350137283805211
20
-168.64559043667271
10
-69.193721933881562
20
-165.80200578659634
42
-0.3486045262036957
0
LWPOLYLINE
5
114
100
AcDbEntity
8
0
100
AcDbPolyline
90
4
70
1
43
0.0
10
-110.80084756152998
20
-118.5380259094556
10
-107.9694198366937
20
-121.36945363429184
42
-0.38624578987757574
10
-52.176178612611743
20
-121.36945363429184
10
-49.344750887775469
20
-118.5380259094556
42
0.3886847744912893
0
CIRCLE
5
115
100
AcDbEntity
8
0
100
AcDbCircle
10
-39.072799224652712
20
-111.09450137107902
30
3.5527136788005009e-14
40
2.0000000000000018
210
0
220
-8.7581154020304303e-46
230
1
0
LWPOLYLINE
5
116
100
AcDbEntity
8
0
100
AcDbPolyline
90
4
70
1
43
0.0
10
-89.494821476049282
20
-145.50090624442862
10
-92.355545346667896
20
-142.64018237381003
42
0.34029461867260635
10
-92.355545346667896
20
-161.548820368348
10
-89.49482147604931
20
-158.68809649772939
42
-0.31515094704625185
0
LWPOLYLINE
5
117
100
AcDbEntity
8
0
100
AcDbPolyline
90
4
70
1
43
0.0
10
-93.780303640170061
20
-141.21542408030788
10
-96.623888290246427
20
-138.37183943023152
42
0.36063782345866446
10
-96.623888290246427
20
-165.81716331192652
10
-93.780303640170061
20
-162.97357866185018
42
-0.3486045262036952
0
LWPOLYLINE
5
118
100
AcDbEntity
8
0
100
AcDbPolyline
90
4
70
1
43
0.0
10
-66.365294809135392
20
-162.97357866185018
10
-63.521710159059026
20
-165.81716331192652
42
0.36063782345866457
10
-63.521710159059033
20
-138.37183943023152
10
-66.365294809135392
20
-141.21542408030788
42
-0.3486045262036952
0
LWPOLYLINE
5
119
100
AcDbEntity
8
0
100
AcDbPolyline
90
4
70
1
43
0.0
10
-70.650776973256157
20
-158.68809649772939
10
-67.790053102637557
20
-161.548820368348
42
0.3402946186726063
10
-67.790053102637543
20
-142.64018237381003
10
-70.650776973256171
20
-145.50090624442865
42
-0.31515094704625196
0
LWPOLYLINE
5
120
100
AcDbEntity
8
0
100
AcDbPolyline
90
4
70
1
43
0.0
10
-73.479204098002327
20
-142.67247911968244
10
-70.618480227383728
20
-139.81175524906382
42
0.34029461867260624
10
-89.527118221921711
20
-139.81175524906382
10
-86.666394351303126
20
-142.67247911968244
42
-0.31515094704625224
0
LWPOLYLINE
5
121
100
AcDbEntity
8
0
100
AcDbPolyline
90
4
70
1
43
0.0
10
-69.193721933881577
20
-138.38699695556167
10
-66.350137283805211
20
-135.54341230548533
42
0.3606378234586648
10
-93.795461165500242
20
-135.54341230548533
10
-90.951876515423891
20
-138.38699695556167
42
-0.34860452620369514
0
LWPOLYLINE
5
122
100
AcDbEntity
8
0
100
AcDbPolyline
90
4
70
1
43
0.0
10
-98.043733476824272
20
-136.95199424365367
10
-100.88095514024529
20
-134.11477258023265
42
0.37218826614416473
10
-100.88095514024531
20
-170.07423016192541
10
-98.043733476824286
20
-167.23700849850434
42
-0.3651354231700828
0
LWPOLYLINE
5
123
100
AcDbEntity
8
0
100
AcDbPolyline
90
4
70
1
43
0.0
10
-95.215306352078088
20
-170.06543562325055
10
-98.052528015499107
20
-172.90265728667157
42
0.37218826614416495
10
-62.093070433806339
20
-172.90265728667157
10
-64.930292097227365
20
-170.06543562325055
42
-0.3651354231700833
0
LWPOLYLINE
5
124
100
AcDbEntity
8
0
100
AcDbPolyline
90
4
70
1
43
0.0
10
-64.930292097227365
20
-134.12356711890749
10
-62.093070433806332
20
-131.28634545548644
42
0.37218826614416495
10
-98.052528015499121
20
-131.28634545548644
10
-95.215306352078088
20
-134.12356711890749
42
-0.3651354231700833
0
LWPOLYLINE
5
125
100
AcDbEntity
8
0
100
AcDbPolyline
90
4
70
1
43
0.0
10
-62.101864972481174
20
-167.23700849850439
10
-59.264643309060155
20
-170.07423016192541
42
0.37218826614416489
10
-59.264643309060176
20
-134.11477258023265
10
-62.101864972481174
20
-136.95199424365367
42
-0.36513542317008302
0
LWPOLYLINE
5
126
100
AcDbEntity
8
0
100
AcDbPolyline
90
4
70
1
43
0.0
10
-102.29866817529324
20
-132.69705954518471
10
-105.13283694267749
20
-129.86289077780046
42
0.3796379145165012
10
-105.13283694267749
20
-174.32611196435758
10
-102.29866817529324
20
-171.49194319697332
42
-0.37500465858590681
0
LWPOLYLINE
5
127
100
AcDbEntity
8
0
100
AcDbPolyline
90
4
70
1
43
0.0
10
-99.470241050547074
20
-174.32037032171957
10
-102.30440981793132
20
-177.15453908910379
42
0.37963791451650125
10
-57.841188631374145
20
-177.15453908910379
10
-60.675357398758379
20
-174.32037032171957
42
-0.37500465858590709
0
LWPOLYLINE
5
128
100
AcDbEntity
8
0
100
AcDbPolyline
90
4
70
1
43
0.0
10
-60.675357398758401
20
-129.8686324204385
10
-57.841188631374145
20
-127.03446365305425
42
0.37963791451650125
10
-102.30440981793132
20
-127.03446365305425
10
-99.47024105054706
20
-129.8686324204385
42
-0.37500465858590709
0
LWPOLYLINE
5
129
100
AcDbEntity
8
0
100
AcDbPolyline
90
4
70
1
43
0.0
10
-57.846930274012223
20
-171.49194319697332
10
-55.01276150662796
20
-174.32611196435758
42
0.37963791451650114
10
-55.012761506627967
20
-129.86289077780046
10
-57.846930274012216
20
-132.69705954518474
42
-0.37500465858590692
0
LWPOLYLINE
5
130
100
AcDbEntity
8
0
100
AcDbPolyline
90
4
70
1
43
0.0
10
-106.5494348567301
20
-128.44629286374783
10
-109.38190479255255
20
-125.61382292792537
42
0.38484264872507162
10
-109.38190479255256
20
-178.57517981423263
10
-106.5494348567301
20
-175.74270987841021
42
-0.38156650915545237
0
LWPOLYLINE
5
131
100
AcDbEntity
8
0
100
AcDbPolyline
90
4
70
1
43
0.0
10
-56.424590717321536
20
-125.61786573900164
10
-53.592120781499077
20
-122.78539580317918
42
0.38484264872507173
10
-106.55347766780639
20
-122.78539580317917
10
-103.72100773198392
20
-125.61786573900164
42
-0.38156650915545237
0
LWPOLYLINE
5
132
100
AcDbEntity
8
0
100
AcDbPolyline
90
4
70
1
43
0.0
10
-103.72100773198392
20
-178.57113700315639
10
-106.55347766780639
20
-181.40360693897887
42
0.38484264872507185
10
-53.592120781499062
20
-181.40360693897887
10
-56.424590717321514
20
-178.57113700315639
42
-0.38156650915545254
0
LWPOLYLINE
5
133
100
AcDbEntity
8
0
100
AcDbPolyline
90
4
70
1
43
0.0
10
-53.596163592575337
20
-175.74270987841021
10
-50.763693656752892
20
-178.57517981423263
42
0.38484264872507157
10
-50.763693656752899
20
-125.61382292792537
10
-53.59616359257533
20
-128.44629286374786
42
-0.38156650915545209
0
LWPOLYLINE
5
134
100
AcDbEntity
8
0
100
AcDbPolyline
90
4
70
1
43
0.0
10
-110.79784696143989
20
-124.19788075903803
10
-113.62927468627616
20
-121.36645303420178
42
0.38868477449128919
10
-113.62927468627618
20
-182.82254970795628
10
-110.79784696143992
20
-179.99112198311997
42
-0.38624578987757574
0
LWPOLYLINE
5
135
100
AcDbEntity
8
0
100
AcDbPolyline
90
4
70
1
43
0.0
10
-49.344750887775476
20
-185.65097683270244
10
-52.17617861261175
20
-182.81954910786621
42
-0.3862457898775758
10
-107.9694198366937
20
-182.81954910786621
10
-110.80084756152999
20
-185.65097683270244
42
0.38868477449128935
0
LWPOLYLINE
5
136
100
AcDbEntity
8
0
100
AcDbPolyline
90
4
70
1
43
0.0
10
-49.347751487865573
20
-179.99112198311997
10
-46.516323763029277
20
-182.82254970795628
42
0.38868477449128919
10
-46.516323763029291
20
-121.36645303420178
10
-49.347751487865565
20
-124.19788075903807
42
-0.38624578987757568
0
LWPOLYLINE
5
137
100
AcDbEntity
8
0
100
AcDbPolyline
90
4
70
1
43
0.0
10
3.0000006556595951
20
-70.000011056660611
10
3.0000006556596048
20
-265.0000110566607
10
-361.00000271200594
20
-265.00001105666053
10
-361.00000271200594
20
-70.000011056660753
0
ENDSEC
0
SECTION
2
OBJECTS
0
DICTIONARY
5
C
100
AcDbDictionary
3
ACAD_GROUP
350
D
3
ACAD_MLINESTYLE
350
17
0
DICTIONARY
5
D
100
AcDbDictionary
0
DICTIONARY
5
1A
330
C
100
AcDbDictionary
0
DICTIONARY
5
17
100
AcDbDictionary
0
ENDSEC
0
EOF
