0
SECTION
2
HEADER
9
$INSUNITS
70
4
9
$ACADVER
1
AC1014
9
$HANDSEED
5
FFFF
0
ENDSEC
0
SECTION
2
TABLES
0
TABLE
2
VPORT
5
8
100
AcDbSymbolTable
0
ENDTAB
0
TABLE
2
LTYPE
5
5
100
AcDbSymbolTable
0
LTYPE
5
14
100
AcDbSymbolTableRecord
100
AcDbLinetypeTableRecord
2
BYBLOCK
70
0
0
LTYPE
5
15
100
AcDbSymbolTableRecord
100
AcDbLinetypeTableRecord
2
BYLAYER
70
0
0
ENDTAB
0
TABLE
2
LAYER
5
2
100
AcDbSymbolTable
70
2
0
LAYER
5
50
100
AcDbSymbolTableRecord
100
AcDbLayerTableRecord
2
0
70
0
6
CONTINUOUS
0
ENDTAB
0
TABLE
2
STYLE
5
3
100
AcDbSymbolTable
70
1
0
STYLE
5
11
100
AcDbSymbolTableRecord
100
AcDbTextStyleTableRecord
2
STANDARD
70
0
0
ENDTAB
0
TABLE
2
VIEW
5
6
100
AcDbSymbolTable
70
0
0
ENDTAB
0
TABLE
2
UCS
5
7
100
AcDbSymbolTable
70
0
0
ENDTAB
0
TABLE
2
APPID
5
9
100
AcDbSymbolTable
70
2
0
APPID
5
12
100
AcDbSymbolTableRecord
100
AcDbRegAppTableRecord
2
ACAD
70
0
0
ENDTAB
0
TABLE
2
DIMSTYLE
5
A
100
AcDbSymbolTable
70
1
0
ENDTAB
0
TABLE
2
BLOCK_RECORD
5
1
100
AcDbSymbolTable
70
1
0
BLOCK_RECORD
5
1F
100
AcDbSymbolTableRecord
100
AcDbBlockTableRecord
2
*MODEL_SPACE
0
BLOCK_RECORD
5
1B
100
AcDbSymbolTableRecord
100
AcDbBlockTableRecord
2
*PAPER_SPACE
0
ENDTAB
0
ENDSEC
0
SECTION
2
BLOCKS
0
BLOCK
5
20
100
AcDbEntity
100
AcDbBlockBegin
2
*MODEL_SPACE
0
ENDBLK
5
21
100
AcDbEntity
100
AcDbBlockEnd
0
BLOCK
5
1C
100
AcDbEntity
100
AcDbBlockBegin
2
*PAPER_SPACE
0
ENDBLK
5
1D
100
AcDbEntity
100
AcDbBlockEnd
0
ENDSEC
0
SECTION
2
ENTITIES
0
LWPOLYLINE
5
100
100
AcDbEntity
8
0
100
AcDbPolyline
90
20
70
1
43
0.0
10
223.50000168383309
20
-8.2689410874081659e-12
42
-0.41421356237309098
10
233.5000016838332
20
-10.000000000008241
42
0.99999999999999989
10
252.50000168383323
20
-10.00000000000818
42
-0.41421356237308943
10
262.50000168383303
20
-8.2712000000000005e-12
10
314.50000336766561
20
-8.0557782666801359e-12
42
-0.41421356237309076
10
324.50000336766561
20
-10.000000000008132
42
0.99999999999999989
10
343.50000336766561
20
-10.000000000008241
42
-0.41421356237310525
10
353.50000336766578
20
-7.9891999999999999e-12
10
364.00000336766539
20
1.0660000000000001e-13
10
364.00000336766533
20
510.00000834465283
10
0
20
510.00000834465283
10
0
20
0
10
10.500000000000041
20
-8.1890050296351546e-12
42
-0.4142135623730952
10
20.500000000000107
20
-10.000000000008241
42
0.99999999999999989
10
39.500000000000071
20
-10.000000000008239
42
-0.41421356237309886
10
49.500000000000277
20
-8.0446760364338843e-12
10
101.50000168383312
20
-8.2689410874081659e-12
42
-0.41421356237309026
10
111.50000168383329
20
-10.000000000008241
42
0.99999999999999989
10
130.50000168383329
20
-10.000000000008241
42
-0.4142135623730907
10
140.5000016838332
20
-8.2645001953096653e-12
0
CIRCLE
5
101
100
AcDbEntity
8
0
100
AcDbCircle
10
334.00000336766561
20
-10.000000000008132
30
0
40
3.0000000000000004
210
0
220
0
230
1
0
CIRCLE
5
102
100
AcDbEntity
8
0
100
AcDbCircle
10
304.00000168383292
20
500.00000834464794
30
0
40
3.0000000000000204
210
0
220
0
230
1
0
CIRCLE
5
103
100
AcDbEntity
8
0
100
AcDbCircle
10
121.0000016838331
20
-10.000000000008241
30
0
40
2.9999999999999982
210
0
220
0
230
1
0
CIRCLE
5
104
100
AcDbEntity
8
0
100
AcDbCircle
10
30.000000000000071
20
-10.000000000008241
30
0
40
3.0000000000000138
210
0
220
0
230
1
0
CIRCLE
5
105
100
AcDbEntity
8
0
100
AcDbCircle
10
243.00000168383303
20
-10.000000000008241
30
0
40
2.9999999999999982
210
0
220
0
230
1
0
CIRCLE
5
106
100
AcDbEntity
8
0
100
AcDbCircle
10
60.000001683832984
20
500.00000834464794
30
0
40
3.0000000000000093
210
0
220
0
230
1
0
CIRCLE
5
107
100
AcDbEntity
8
0
100
AcDbCircle
10
182.00000168383301
20
500.00000834464794
30
0
40
3.0000000000000093
210
0
220
0
230
1
0
CIRCLE
5
108
100
AcDbEntity
8
0
100
AcDbCircle
10
354.00000336766573
20
255.00000417232184
30
0
40
3.0000000000000004
210
0
220
0
230
1
0
CIRCLE
5
109
100
AcDbEntity
8
0
100
AcDbCircle
10
10.00000336766597
20
255.00000417232184
30
0
40
2.9999999999999689
210
0
220
0
230
1
0
CIRCLE
5
110
100
AcDbEntity
8
0
100
AcDbCircle
10
354.00000336766573
20
450.00000417232178
30
0
40
3.0000000000000004
210
0
220
0
230
1
0
CIRCLE
5
111
100
AcDbEntity
8
0
100
AcDbCircle
10
354.00000336766573
20
60.000004172321823
30
0
40
3.0000000000000004
210
0
220
0
230
1
0
CIRCLE
5
112
100
AcDbEntity
8
0
100
AcDbCircle
10
10.00000336766597
20
60.000004172321823
30
0
40
2.9999999999999689
210
0
220
0
230
1
0
CIRCLE
5
113
100
AcDbEntity
8
0
100
AcDbCircle
10
10.00000336766597
20
450.00000417232178
30
0
40
2.9999999999999689
210
0
220
0
230
1
0
ENDSEC
0
SECTION
2
OBJECTS
0
DICTIONARY
5
C
100
AcDbDictionary
3
ACAD_GROUP
350
D
3
ACAD_MLINESTYLE
350
17
0
DICTIONARY
5
D
100
AcDbDictionary
0
DICTIONARY
5
1A
330
C
100
AcDbDictionary
0
DICTIONARY
5
17
100
AcDbDictionary
0
ENDSEC
0
EOF
