0
SECTION
2
HEADER
9
$INSUNITS
70
4
9
$ACADVER
1
AC1014
9
$HANDSEED
5
FFFF
0
ENDSEC
0
SECTION
2
TABLES
0
TABLE
2
VPORT
5
8
100
AcDbSymbolTable
0
ENDTAB
0
TABLE
2
LTYPE
5
5
100
AcDbSymbolTable
0
LTYPE
5
14
100
AcDbSymbolTableRecord
100
AcDbLinetypeTableRecord
2
BYBLOCK
70
0
0
LTYPE
5
15
100
AcDbSymbolTableRecord
100
AcDbLinetypeTableRecord
2
BYLAYER
70
0
0
ENDTAB
0
TABLE
2
LAYER
5
2
100
AcDbSymbolTable
70
2
0
LAYER
5
50
100
AcDbSymbolTableRecord
100
AcDbLayerTableRecord
2
0
70
0
6
CONTINUOUS
0
ENDTAB
0
TABLE
2
STYLE
5
3
100
AcDbSymbolTable
70
1
0
STYLE
5
11
100
AcDbSymbolTableRecord
100
AcDbTextStyleTableRecord
2
STANDARD
70
0
0
ENDTAB
0
TABLE
2
VIEW
5
6
100
AcDbSymbolTable
70
0
0
ENDTAB
0
TABLE
2
UCS
5
7
100
AcDbSymbolTable
70
0
0
ENDTAB
0
TABLE
2
APPID
5
9
100
AcDbSymbolTable
70
2
0
APPID
5
12
100
AcDbSymbolTableRecord
100
AcDbRegAppTableRecord
2
ACAD
70
0
0
ENDTAB
0
TABLE
2
DIMSTYLE
5
A
100
AcDbSymbolTable
70
1
0
ENDTAB
0
TABLE
2
BLOCK_RECORD
5
1
100
AcDbSymbolTable
70
1
0
BLOCK_RECORD
5
1F
100
AcDbSymbolTableRecord
100
AcDbBlockTableRecord
2
*MODEL_SPACE
0
BLOCK_RECORD
5
1B
100
AcDbSymbolTableRecord
100
AcDbBlockTableRecord
2
*PAPER_SPACE
0
ENDTAB
0
ENDSEC
0
SECTION
2
BLOCKS
0
BLOCK
5
20
100
AcDbEntity
100
AcDbBlockBegin
2
*MODEL_SPACE
0
ENDBLK
5
21
100
AcDbEntity
100
AcDbBlockEnd
0
BLOCK
5
1C
100
AcDbEntity
100
AcDbBlockBegin
2
*PAPER_SPACE
0
ENDBLK
5
1D
100
AcDbEntity
100
AcDbBlockEnd
0
ENDSEC
0
SECTION
2
ENTITIES
0
LINE
5
100
100
AcDbEntity
8
0
100
AcDbLine
10
452.00000336766607
20
0
30
0
11
0
21
0
31
0
0
ARC
5
101
100
AcDbEntity
8
0
100
AcDbCircle
10
-130.49999999999997
20
520.00000834465266
30
0
40
10.000000000000036
210
0
220
0
230
-1
100
AcDbArc
50
180
51
270
0
CIRCLE
5
102
100
AcDbEntity
8
0
100
AcDbCircle
10
10
20
60.00000417232598
30
0
40
3.0000000000000093
210
0
220
0
230
1
0
ARC
5
103
100
AcDbEntity
8
0
100
AcDbCircle
10
150
20
520.00000834465266
30
0
40
9.5000000000000284
210
0
220
0
230
1
100
AcDbArc
50
0
51
180
0
ARC
5
104
100
AcDbEntity
8
0
100
AcDbCircle
10
-49.500000000000171
20
520.00000834465266
30
0
40
10.000000000000142
210
-0
220
0
230
-1
100
AcDbArc
50
-89.99999999999919
51
0
0
ARC
5
105
100
AcDbEntity
8
0
100
AcDbCircle
10
30
20
520.00000834465266
30
0
40
9.5000000000000284
210
0
220
0
230
1
100
AcDbArc
50
0
51
180
0
LINE
5
106
100
AcDbEntity
8
0
100
AcDbLine
10
321.50000336766516
20
510.00000834465254
30
0
11
402.50000336766504
21
510.00000834465266
31
0
0
CIRCLE
5
107
100
AcDbEntity
8
0
100
AcDbCircle
10
10
20
450.00000417232627
30
0
40
3.0000000000000093
210
0
220
0
230
1
0
LINE
5
108
100
AcDbEntity
8
0
100
AcDbLine
10
0
20
510.00000834465254
30
0
11
10.499999999999972
21
510.00000834465266
31
0
0
CIRCLE
5
109
100
AcDbEntity
8
0
100
AcDbCircle
10
442
20
60.00000417232598
30
0
40
3.0000000000000093
210
0
220
0
230
1
0
ARC
5
110
100
AcDbEntity
8
0
100
AcDbCircle
10
-402.50000336766504
20
520.00000834465266
30
0
40
10
210
0
220
0
230
-1
100
AcDbArc
50
180
51
270
0
LINE
5
111
100
AcDbEntity
8
0
100
AcDbLine
10
441.5000033676651
20
510.00000834465254
30
0
11
452.00000336766504
21
510.00000834465254
31
0
0
CIRCLE
5
112
100
AcDbEntity
8
0
100
AcDbCircle
10
61.000001683833034
20
10
30
0
40
3.0000000000000093
210
0
220
0
230
1
0
ARC
5
113
100
AcDbEntity
8
0
100
AcDbCircle
10
-169.50000000000011
20
520.00000834465266
30
0
40
10.000000000000071
210
-0
220
0
230
-1
100
AcDbArc
50
-89.999999999999332
51
0
0
CIRCLE
5
114
100
AcDbEntity
8
0
100
AcDbCircle
10
302.00000336766499
20
520.00000834465266
30
0
40
2.9999999999999982
210
0
220
0
230
1
0
LINE
5
115
100
AcDbEntity
8
0
100
AcDbLine
10
169.5
20
510.00000834465254
30
0
11
282.50000336766499
21
510.00000834465266
31
0
0
ARC
5
116
100
AcDbEntity
8
0
100
AcDbCircle
10
302.00000336766516
20
520.00000834465277
30
0
40
9.4999999999999929
210
0
220
-0
230
1
100
AcDbArc
50
0
51
180
0
CIRCLE
5
117
100
AcDbEntity
8
0
100
AcDbCircle
10
30
20
520.00000834465266
30
0
40
3.0000000000000138
210
0
220
0
230
1
0
CIRCLE
5
118
100
AcDbEntity
8
0
100
AcDbCircle
10
422.00000336766504
20
520.00000834465266
30
0
40
3.0000000000000004
210
0
220
0
230
1
0
ARC
5
119
100
AcDbEntity
8
0
100
AcDbCircle
10
422.00000336766504
20
520.00000834465266
30
0
40
9.5000000000000284
210
0
220
0
230
1
100
AcDbArc
50
0
51
180
0
ARC
5
120
100
AcDbEntity
8
0
100
AcDbCircle
10
-441.50000336766527
20
520.00000834465266
30
0
40
10.000000000000142
210
-0
220
0
230
-1
100
AcDbArc
50
-89.999999999999019
51
0
0
CIRCLE
5
121
100
AcDbEntity
8
0
100
AcDbCircle
10
442
20
450.00000417232627
30
0
40
3.0000000000000093
210
0
220
0
230
1
0
CIRCLE
5
122
100
AcDbEntity
8
0
100
AcDbCircle
10
391.00000168383303
20
10
30
0
40
3.0000000000000093
210
0
220
0
230
1
0
CIRCLE
5
123
100
AcDbEntity
8
0
100
AcDbCircle
10
442
20
255.00000417232602
30
0
40
3.0000000000000093
210
0
220
0
230
1
0
LINE
5
124
100
AcDbEntity
8
0
100
AcDbLine
10
49.500000000000028
20
510.00000834465254
30
0
11
130.49999999999997
21
510.00000834465266
31
0
0
CIRCLE
5
125
100
AcDbEntity
8
0
100
AcDbCircle
10
226.0000016838332
20
10
30
0
40
3.0000000000000004
210
0
220
0
230
1
0
ARC
5
126
100
AcDbEntity
8
0
100
AcDbCircle
10
-321.50000336766533
20
520.00000834465266
30
0
40
10.000000000000142
210
-0
220
0
230
-1
100
AcDbArc
50
-89.999999999999019
51
0
0
CIRCLE
5
127
100
AcDbEntity
8
0
100
AcDbCircle
10
10
20
255.00000417232602
30
0
40
3.0000000000000093
210
0
220
0
230
1
0
ARC
5
128
100
AcDbEntity
8
0
100
AcDbCircle
10
-10.499999999999972
20
520.00000834465266
30
0
40
10
210
0
220
0
230
-1
100
AcDbArc
50
180
51
270
0
ARC
5
129
100
AcDbEntity
8
0
100
AcDbCircle
10
-282.50000336766516
20
520.00000834465277
30
0
40
10.000000000000036
210
0
220
0
230
-1
100
AcDbArc
50
180
51
270.00000000000097
0
CIRCLE
5
130
100
AcDbEntity
8
0
100
AcDbCircle
10
150
20
520.00000834465266
30
0
40
3.0000000000000004
210
0
220
0
230
1
0
LINE
5
131
100
AcDbEntity
8
0
100
AcDbLine
10
452.00000336766504
20
510.00000834465254
30
0
11
452.00000336766607
21
0
31
0
0
LINE
5
132
100
AcDbEntity
8
0
100
AcDbLine
10
0
20
0
30
0
11
0
21
510.00000834465254
31
0
0
ENDSEC
0
SECTION
2
OBJECTS
0
DICTIONARY
5
C
100
AcDbDictionary
3
ACAD_GROUP
350
D
3
ACAD_MLINESTYLE
350
17
0
DICTIONARY
5
D
100
AcDbDictionary
0
DICTIONARY
5
1A
330
C
100
AcDbDictionary
0
DICTIONARY
5
17
100
AcDbDictionary
0
ENDSEC
0
EOF
